<?xml version="1.0" encoding="utf-8"?>
<!-- Generator: Adobe Illustrator 21.1.0, SVG Export Plug-In . SVG Version: 6.00 Build 0)  -->
<svg version="1.1" id="Layer_1" xmlns="http://www.w3.org/2000/svg" xmlns:xlink="http://www.w3.org/1999/xlink" x="0px" y="0px"
	 viewBox="0 0 279.8 588" style="enable-background:new 0 0 279.8 588;" xml:space="preserve">
<style type="text/css">
	.st0{fill:url(#SVGID_1_);}
	.st1{fill:#F7F8F9;}
	.st2{fill:#FEE2CB;}
	.st3{fill:#DDBCA7;}
	.st4{fill:#523520;}
	.st5{fill:#376171;}
	.st6{fill:#EEEEEF;}
	.st7{fill:#3E3026;}
	.st8{fill:#FFFFFF;}
	.st9{fill:#CDCCCC;}
	.st10{fill:#F3D4BE;}
	.st11{fill:#412912;}
	.st12{fill:#E07474;}
	.st13{fill:#601715;}
	.st14{fill:#010101;}
	.st15{fill:#76C482;}
	.st16{fill:#347B43;}
	.st17{fill:#254564;}
	.st18{fill:#CBDBE8;}
	.st19{fill:#20808C;}
	.st20{fill:#555555;}
	.st21{fill:#C0BFBF;}
	.st22{fill:#5E5F5F;}
	.st23{fill:none;stroke:#FFFFFF;stroke-width:2.177;stroke-miterlimit:10;}
	.st24{fill:#2D9CD7;}
	.st25{fill:#A8CC39;}
</style>
<linearGradient id="SVGID_1_" gradientUnits="userSpaceOnUse" x1="139.9" y1="28.3123" x2="139.9" y2="688.7204" gradientTransform="matrix(1 0 0 -1 0 590)">
	<stop  offset="0" style="stop-color:#3A98D4"/>
	<stop  offset="1" style="stop-color:#1E5D83"/>
</linearGradient>
<rect class="st0" width="279.8" height="588"/>
<g>
	<path class="st1" d="M217,95.6c0,0,0,6.2-4.9,14.2c-9.5,15.3-33.4,21.6-48,22.1c0,0,1.7,8.7,0.2,11.8c0,0,53.6-6.8,59.9-42.7
		L217,95.6z"/>
	<g>
		<path class="st2" d="M164.1,131.8c0,0-6.2-4-8.4-3.5s-1.9,3.2-2.3,4.2c0,0-14.4-4-15.3-0.6c-0.9,3.4,10.5,4.5,10.5,4.5
			s-0.1,6.9,2.2,8.7s5.9-1,5.9-1s5.9,0.9,7.7-0.9C166.2,141.4,166.2,133.6,164.1,131.8z"/>
		<path class="st3" d="M153.2,133.2c0,0-1.8,4.9,0.5,5.4c2.3,0.4,3.6-2.6,3.6-2.6s1,2.9,4,2.4c0,0-4.5-1.1-3.3-4.5
			c0,0-1.8,4.6-4.1,3.9C151.5,137.1,153.2,133.2,153.2,133.2z"/>
		<path class="st3" d="M149.6,137.3c0,0,5.2,0.6,5.9,2.9c0.7,2.3,0,3.8,0,3.8s1.5-2.4,0.7-4C155.3,138.3,153.1,137.2,149.6,137.3z"
			/>
	</g>
	<path class="st4" d="M254.7,251.4c0,0,2.7,3.2,8,4.5c5.3,1.3,7.4,2.5,7.7,5.7c0.3,3.3,0,4.7,0,4.7s-20.4,0.5-26.4-3
		c0,0,0.8-8.8,0.7-12L254.7,251.4L254.7,251.4z"/>
	<path class="st4" d="M206.7,250.4c0,0-2.7,3.2-8,4.5c-5.3,1.3-7.4,2.5-7.7,5.7c-0.3,3.3,0,4.7,0,4.7s20.4,0.5,26.4-3
		c0,0-0.8-8.8-0.7-12L206.7,250.4L206.7,250.4z"/>
	<path class="st5" d="M209.9,200c0,0,0.9,21,0,29s-0.6,12.4-1.3,14.8s-2.6,2.2-2,6.3c0,0,6.4,1.1,9.7,1.2c0,0,1.3-3.7,1.9-6.7
		c0.6-3,0.7-11.1,1.8-19s2.2-21,2.2-21L209.9,200z"/>
	<path class="st5" d="M257.5,202.7c0,0-0.3,22.2-0.5,28s-1.3,13.5-1,15.3c0,0,2.1,2.2,0,4.2v2.7c0,0-9.3,1.3-11.9,0
		c0,0,0.8-4.2,0.7-7.2s1.1-10.7,1.4-15c0.3-4.3-0.3-24.4,0-28C246.4,199.1,257.5,202.7,257.5,202.7z"/>
	<path class="st6" d="M254.5,94.9c7.9,3.4-5.5,28.6-2.6,36.4c2.8,7.8,22,26.9,22,26.9s-5.6,7.8-6.9,7s-19.4-13.2-22.7-31
		C241,116.5,245.7,91.1,254.5,94.9z"/>
	<path class="st7" d="M292.2,164.5c0,0-15.7-25.2-16.4-25.9l-26.2,21.7l12.7,20.5C262.3,180.7,290.4,165,292.2,164.5z"/>
	<g>
		<polygon class="st8" points="285.2,163.1 264.8,175.9 254.5,161.8 274.3,145.1 		"/>
		<polygon class="st9" points="285.9,158 282.5,161.4 274.7,149.7 279,147.5 		"/>
	</g>
	<g>
		<path class="st10" d="M284.4,171.6c2.2-1.3-1.6-8.6-4.9-7.6C276.2,164.9,282.2,172.9,284.4,171.6z"/>
		<path class="st10" d="M281.2,174.3c2.2-1.3-1.6-8.6-4.9-7.6C273,167.6,279.1,175.6,281.2,174.3z"/>
		<path class="st10" d="M277.4,176c2.2-1.3-1.6-8.6-4.9-7.6C269.1,169.2,275.2,177.2,277.4,176z"/>
	</g>
	<path class="st1" d="M229,93.5c0,0-8.6-1.7-11.5-0.8c-2.9,0.8-5.1,25.8-5.7,35.4c-0.6,9.7-8.1,59.9-10.9,75.3
		c0,0,16.6,6.2,35.6,6.2l1.2-2.6c0,0,19.1,0.2,29.6-2.6c0,0-6.1-45.6-8.5-60.4c-2.4-14.8-3.6-43.6-4.3-46.8
		c-0.8-3.2-15.2-3.7-15.2-3.7L229,93.5L229,93.5z"/>
	<path class="st11" d="M211.1,58.5c0,0-6.3-13.2-1.6-22.1c0,0-4.3-8.5-3-10.9c0.7-1.2,3.8,3.6,5.4,3c-0.6-3.5,1.1-7.8,3.2-8.5
		c1.7-0.8,3.9,3.9,5.8,3.4c0.9-0.3,3.9-2.3,8.8-1.7c4.9,0.6,10.6,2.7,10.6,2.7s4.4-2,6.4-1.7s12,5.3,14.1,8.2c0,0,1.7-1.8,3-2
		c1.4-0.2-1.4,3.2-1.4,3.2s3.6,1.5,5.2,4.2c1.5,2.7-2.5,0.8-2.5,0.8s5.6,12.1-5.6,24.9c-11.2,12.7-24,10.9-28.5,8
		C226.6,67.1,211.1,58.5,211.1,58.5z"/>
	<path class="st10" d="M212.2,36.3c0,0,13.8,9.8,13.5,3.1c0,0,9.6,5.6,17.4,0.6c0,0,1.4,4.4,6,4c0,0,2.3,3.1,3.2,3.9
		c0.9,0.8-3.1,15.8-3.1,15.8s4.4,1.4,5,1.6c0.5,0.2,1.4-6.1,7.8-5.1s2.2,16.1-2.4,15.2c-4.6-0.9-5.3-4-5.3-4s-0.3,15.5-2.9,18.3
		c-2.1,2.3-28.3,2.8-37.4-1C204.8,85,212.7,43,212.2,36.3z"/>
	<g>
		<path class="st12" d="M227.2,86.2c0.9,0.2,1.8,0.2,2.8,0c4.8-1,7.4-5.7,8.7-8.9C236.1,78,229.3,80.5,227.2,86.2z"/>
		<path class="st13" d="M218,77.6c0,0,3.4,7.6,9.2,8.6c2.1-5.7,8.9-8.2,11.5-9c0.7-1.9,1-3.3,1-3.3C232.8,75.6,218,77.6,218,77.6z"
			/>
	</g>
	<g>
		<path class="st14" d="M229.4,58.2c0,0,2-2.5,6-2.6c3.9-0.1,5.2,2.6,5.2,2.6S236.3,55.4,229.4,58.2z"/>
		<circle class="st14" cx="237.3" cy="59.2" r="2.7"/>
	</g>
	<g>
		<path class="st14" d="M211.9,57.2c0,0,1.8-2.4,5.3-2.4c3.5-0.1,4.6,2.4,4.6,2.4S218,54.6,211.9,57.2z"/>
		<circle class="st14" cx="218.7" cy="58.2" r="2.6"/>
	</g>
	<path class="st11" d="M229.4,52c0,0,5.3-0.9,7.2-0.6c1.9,0.3,4,2,4,2s-2.7-3.6-6.5-4C230.3,49.1,229.4,52,229.4,52z"/>
	<path class="st11" d="M221.2,51.5c0,0-2.6-3.7-6.3-2c-2,0.9-3.6,3.7-3.6,3.7s1.5-2.4,5.5-2.3C220.8,51.1,221.2,51.5,221.2,51.5z"/>
	<g>
		<path class="st3" d="M255.8,68.2c0,0,2-4.3,4.5-4c2.5,0.3,3.4,3.9,2.8,5.4c0,0-0.5-4.8-3-4.4C257.6,65.5,256.7,66.9,255.8,68.2z"
			/>
		<path class="st3" d="M258.5,70.6c0,0,1.8-2.6,0-5l-1.2,0.8C257.3,66.4,259.4,68,258.5,70.6z"/>
	</g>
	<path class="st15" d="M240.4,94.9c0,0,0.4,3.4,0,6.1c-0.4,2.7,0.2,21.8,0.2,21.8l-0.2,10.1c0,0-8-19.8-10.2-25.3
		s-0.7-11.1-0.7-11.1l0.6-1.4h10.3V94.9z"/>
	<path class="st10" d="M241.7,91.1c0,0-0.8,5.6-1.6,6.8c-0.7,1.2-7.5,2.8-9.1,0s0.7-7.8,0.7-7.8L241.7,91.1z"/>
	<path class="st16" d="M239.6,100.4c0,0-2.4,4.2-8.6,1.4C231,101.7,237,106.1,239.6,100.4z"/>
	<path class="st17" d="M240.6,134.7c0,0,0.7,53.1-2.1,70.1C238.5,204.8,244.2,160.8,240.6,134.7z"/>
	<g>
		<path class="st18" d="M241.2,93.5c0,0,7.4,5.7,9.6,6.5c0,0-6.3,1.8-9.1,3.4c0,0,6.8,7,9.6,7.8c0,0-9.3,15.2-10.9,21.6
			C240.4,132.8,237.4,106.8,241.2,93.5z"/>
		<path class="st8" d="M241.2,93.5c0,0,6.1,5.4,8.3,6.2c0,0-4.9,2.1-7.7,3.7c0,0,5.5,7,8.3,7.8c0,0-8,15.2-9.6,21.6
			C240.4,132.8,237.4,106.8,241.2,93.5z"/>
		<path class="st18" d="M230.9,92.3c0,0-0.2,9.1,2,16.8s7.5,23.7,7.5,23.7s-22.9-18.3-25.6-19.7c0,0,10.5-6.1,13.6-8.5
			c0,0-9.5-3.3-12.5-6.3C215.9,98.4,228,92.7,230.9,92.3z"/>
		<path class="st8" d="M230.9,92.3c0,0-0.2,9.1,2,16.8s7.5,23.7,7.5,23.7s-21.3-18.3-24.1-19.7c0,0,8.9-6.1,12-8.5
			c0,0-8.7-3.7-11.2-5.9C217.2,98.8,228,92.7,230.9,92.3z"/>
	</g>
	<g>
		<path class="st18" d="M234,167.2c0,0-16.1,0-24.9-0.5c0,0-1.2,10.6-0.9,13.7s9.8,7.7,11.9,8.6c2.1,0.9,10-4.8,12-6.6
			C234.1,180.6,234,167.2,234,167.2z"/>
		<path class="st1" d="M233.5,167.6c0,0-15.2,0.5-24.1,0c0,0-1,9.6-0.7,12.7s9.2,6.7,11.2,7.6c2.1,0.9,9.6-3.8,11.6-5.6
			S233.5,167.6,233.5,167.6z"/>
	</g>
	<g>
		<path class="st18" d="M262.6,166.7c0,0-6.2-0.4-6.8,0c-0.6,0.4,0.6,14.9,1.3,16.4c0.8,1.5,7.7,3.1,7.7,3.1
			S263.6,170.4,262.6,166.7z"/>
		<path class="st1" d="M262.6,166.7c0,0-5.6,0.5-6.2,0.9s0.4,13.6,1.1,15.1c0.8,1.5,7.2,3.5,7.2,3.5S263.6,170.4,262.6,166.7z"/>
	</g>
	<ellipse class="st17" cx="246.7" cy="153.1" rx="1.4" ry="1.6"/>
	<ellipse class="st17" cx="246.7" cy="171.3" rx="1.4" ry="1.9"/>
	<path class="st19" d="M241.5,93.4c0,0,4.2,3.5,4.5,9.3c0.3,5.9-0.2,12.6,1,15.4c1.2,2.9,2.5,2.3,1.3-0.5s-0.2-10.6-0.4-14.8
		s-3-10.2-6.4-11L241.5,93.4z"/>
	<path class="st19" d="M230.4,91.9c0,0-6.3,1.8-8.1,8.1c-1.9,6.4,1,16.5,1.7,19.8c0,0,1.3,1,0.9-0.7c-0.5-1.7-3.3-14.6-1.2-19.1
		s5.1-6.3,6.6-6.6C230.2,93.5,231,92.7,230.4,91.9z"/>
	<path class="st19" d="M221.7,134.3c0,0-5.9-12.5,3-14.2s6.9,12.8,6.9,12.8l-2.6,0.2c0,0-1,1.5-0.1,1.5s3.9,0.6,4.3-0.4
		c0.4-1,2.6-17.3-8.5-15.6c-10.4,1.6-5.7,15.1-4.3,17.1c0,0,3.2-0.3,3.7-0.8S223.7,134,221.7,134.3z"/>
	<g>
		<path class="st20" d="M245.2,118.6c0.7-2,3.6-4.6,6.1-3.6s2.4,4,0.4,8.2C249.8,127.4,242.8,125.3,245.2,118.6z"/>
		<path class="st21" d="M246,119.1c0.7-2,3.6-4.6,6.1-3.6s2.4,4,0.4,8.2C250.6,127.9,243.6,125.8,246,119.1z"/>
		<path class="st22" d="M247.8,119.8c0.4-1.1,1.9-2.5,3.2-1.9c1.3,0.5,1.3,2.1,0.2,4.4C250.2,124.5,246.5,123.3,247.8,119.8z"/>
	</g>
	<path class="st3" d="M219.4,66.2c0,0-3.7,3.2-3.1,5.1c0.7,1.9,4.1,1.8,4.1,1.8S216,72.3,219.4,66.2z"/>
</g>
<g>
	<path class="st23" d="M102.4,20.3c0,0,2.2-6.3,7.8-6.7c5.6-0.5,8.3,3.6,9,6.7c0.5,2.5-0.5,7.2,0.8,8c1.7,1,8.9-0.6,11.4,3.7
		c1.6,2.8,2,9.5-2.1,11.9c-4.1,2.4-9.1,1-13.1-2.6C112.3,37.7,103,28.4,96.5,28c-5.5-0.4-8.7,3.5-8.8,8.2s4.7,9,9.9,8.6
		c5.2-0.5,5.3-0.2,5.4,1c0.1,1.2-1.3,8.4,2.2,11.5c3.2,2.9,10.4,2.7,12.2-2.2c1.8-4.8,1-7.6,1-7.6"/>
	<path class="st24" d="M106.4,37c0,0,8,7.1,8.9,8.6c1,1.5,1.2,9.2-3.4,9.9s-5.8-3.4-5.6-6.3s0.3-5.9-1.3-7.2
		c-1.6-1.4-6.7-0.1-9.1-0.3c-2.4-0.2-5.3-3.2-4.6-6.5c0.7-3.3,4.8-6.1,8.6-3.3C103.7,34.7,106.4,37,106.4,37z"/>
	<path class="st25" d="M106.2,28.6c0,0,4.1,2.5,6.7,4.5c2.6,1.9,6.6,7.5,8.4,8.4s5,1.4,7.2-1.7c2.2-3.1,1.4-7.6-3.5-8.4
		c-4.9-0.9-7.7,0.5-7.9-2.5c-0.2-3.1,0.9-10.5-3.7-11.9s-9.1,1.9-9.1,5.6C104.3,26.2,104.6,27.1,106.2,28.6z"/>
</g>
<g>
	<path class="st1" d="M58.7,86.2V74.1h4c1.3,0,2.3,0.3,3,0.8s1.1,1.4,1.1,2.5c0,0.5-0.2,1-0.5,1.4s-0.8,0.7-1.3,0.9
		c0.8,0.1,1.4,0.5,1.9,1c0.5,0.6,0.7,1.3,0.7,2c0,1.1-0.4,2-1.1,2.5c-0.7,0.6-1.7,0.9-2.9,0.9h-4.9V86.2z M60.4,79.2H63
		c0.6,0,1.1-0.2,1.5-0.5s0.6-0.8,0.6-1.4c0-0.7-0.2-1.1-0.6-1.5c-0.4-0.3-1-0.5-1.8-0.5h-2.3V79.2z M60.4,80.5v4.4h3.2
		c0.8,0,1.3-0.2,1.7-0.6c0.4-0.4,0.6-0.9,0.6-1.6c0-0.7-0.2-1.2-0.6-1.6s-1-0.6-1.7-0.7h-0.1h-3.1V80.5z"/>
	<path class="st1" d="M75.1,84.9c-0.3,0.5-0.6,0.9-1.1,1.1c-0.4,0.3-1,0.4-1.5,0.4c-1,0-1.8-0.3-2.3-0.9c-0.6-0.6-0.8-1.6-0.8-2.9
		v-5.3H71v5.3c0,1,0.1,1.6,0.4,2s0.7,0.5,1.3,0.5c0.6,0,1.1-0.1,1.4-0.4c0.4-0.2,0.7-0.6,0.9-1v-6.5h1.6v9h-1.5L75.1,84.9z"/>
	<path class="st1" d="M84.3,83.8c0-0.4-0.1-0.7-0.4-0.9s-0.8-0.4-1.6-0.6c-1.1-0.2-1.9-0.5-2.4-1c-0.6-0.4-0.9-1-0.9-1.7
		s0.3-1.4,0.9-1.9s1.4-0.8,2.4-0.8s1.9,0.3,2.5,0.8s0.9,1.2,0.9,1.9v0.1h-1.6c0-0.4-0.2-0.7-0.5-1.1c-0.3-0.3-0.8-0.5-1.3-0.5
		c-0.6,0-1,0.1-1.3,0.4s-0.4,0.6-0.4,0.9c0,0.4,0.1,0.6,0.4,0.8c0.2,0.2,0.8,0.4,1.5,0.5c1.1,0.2,1.9,0.6,2.5,1s0.9,1,0.9,1.7
		c0,0.8-0.3,1.5-1,2c-0.6,0.5-1.5,0.8-2.5,0.8c-1.2,0-2.1-0.3-2.7-0.9c-0.7-0.6-1-1.3-0.9-2v-0.1h1.6c0,0.6,0.2,1,0.7,1.3
		c0.4,0.3,0.9,0.4,1.4,0.4c0.6,0,1-0.1,1.4-0.4S84.3,84.2,84.3,83.8z"/>
	<path class="st1" d="M91.6,85.1c0.5,0,0.9-0.2,1.3-0.5s0.6-0.7,0.6-1.2H95l0,0c0,0.8-0.3,1.5-1,2.1s-1.5,0.9-2.4,0.9
		c-1.3,0-2.2-0.4-2.9-1.3c-0.7-0.9-1-1.9-1-3.2v-0.4c0-1.3,0.3-2.3,1-3.2s1.7-1.3,2.9-1.3c1,0,1.8,0.3,2.5,0.9
		c0.6,0.6,1,1.4,0.9,2.3l0,0h-1.5c0-0.5-0.2-1-0.5-1.4s-0.8-0.6-1.4-0.6c-0.8,0-1.4,0.3-1.8,0.9s-0.6,1.4-0.6,2.3v0.4
		c0,0.9,0.2,1.7,0.5,2.3C90.2,84.8,90.8,85.1,91.6,85.1z"/>
	<path class="st1" d="M102.5,86.2c-0.1-0.3-0.1-0.5-0.1-0.7s0-0.4-0.1-0.6c-0.3,0.4-0.7,0.8-1.2,1.1s-1,0.4-1.6,0.4
		c-0.9,0-1.7-0.2-2.1-0.7c-0.5-0.5-0.7-1.1-0.7-2s0.3-1.5,1-2s1.6-0.7,2.8-0.7h1.8v-1c0-0.5-0.2-0.9-0.5-1.3s-0.8-0.5-1.4-0.5
		c-0.5,0-1,0.1-1.3,0.4s-0.5,0.6-0.5,1H97l0,0c0-0.7,0.3-1.3,0.9-1.8c0.7-0.5,1.5-0.8,2.5-0.8s1.8,0.3,2.5,0.8s0.9,1.3,0.9,2.2v4.3
		c0,0.3,0,0.6,0,0.9c0,0.3,0.1,0.6,0.2,0.9h-1.5V86.2z M99.8,85c0.6,0,1.1-0.2,1.6-0.5s0.8-0.7,0.9-1.1V82h-1.8
		c-0.7,0-1.2,0.2-1.6,0.5s-0.6,0.7-0.6,1.2c0,0.4,0.1,0.7,0.4,1S99.3,85,99.8,85z"/>
	<path class="st1" d="M107.8,77.2l0.1,1.3c0.3-0.5,0.7-0.8,1.1-1.1c0.5-0.3,1-0.4,1.5-0.4c1,0,1.7,0.3,2.3,0.9
		c0.5,0.6,0.8,1.4,0.8,2.6v5.7H112v-5.7c0-0.8-0.2-1.4-0.5-1.7s-0.8-0.5-1.4-0.5c-0.5,0-0.9,0.1-1.3,0.3s-0.6,0.5-0.8,0.9v6.7h-1.6
		v-9H107.8z"/>
	<path class="st1" d="M115.6,81.9c0-1.5,0.3-2.6,0.9-3.5s1.5-1.3,2.6-1.3c0.5,0,1,0.1,1.4,0.3s0.8,0.5,1,0.9v-5h1.6v13H122l-0.3-1.1
		c-0.3,0.4-0.7,0.8-1.1,1s-0.9,0.3-1.5,0.3c-1.1,0-2-0.4-2.6-1.2s-0.9-1.8-0.9-3.1V81.9z M117.3,82c0,0.9,0.2,1.6,0.6,2.2
		c0.4,0.5,1,0.8,1.7,0.8c0.5,0,0.9-0.1,1.2-0.3c0.3-0.2,0.6-0.5,0.8-0.9v-4.2c-0.2-0.4-0.5-0.7-0.8-0.9s-0.7-0.3-1.2-0.3
		c-0.8,0-1.4,0.3-1.7,1C117.5,80.1,117.3,80.9,117.3,82L117.3,82z"/>
	<path class="st1" d="M125.3,81.6c0-1.3,0.4-2.4,1.1-3.3c0.7-0.9,1.7-1.3,2.9-1.3c1.3,0,2.2,0.4,3,1.3s1.1,2,1.1,3.3v0.2
		c0,1.3-0.4,2.4-1.1,3.3c-0.7,0.9-1.7,1.3-3,1.3c-1.2,0-2.2-0.4-3-1.3s-1.1-2-1.1-3.3L125.3,81.6L125.3,81.6z M127,81.8
		c0,1,0.2,1.7,0.6,2.4c0.4,0.6,1,0.9,1.8,0.9c0.8,0,1.4-0.3,1.8-0.9c0.4-0.6,0.6-1.4,0.6-2.4v-0.2c0-0.9-0.2-1.7-0.6-2.4
		c-0.4-0.6-1-0.9-1.8-0.9s-1.4,0.3-1.8,0.9c-0.4,0.6-0.6,1.4-0.6,2.4C127,81.6,127,81.8,127,81.8z"/>
	<path class="st1" d="M145.4,84.9c-0.3,0.5-0.6,0.9-1.1,1.1c-0.4,0.3-1,0.4-1.5,0.4c-1,0-1.8-0.3-2.3-0.9c-0.6-0.6-0.8-1.6-0.8-2.9
		v-5.3h1.6v5.3c0,1,0.1,1.6,0.4,2c0.3,0.4,0.7,0.5,1.3,0.5s1.1-0.1,1.4-0.4c0.4-0.2,0.7-0.6,0.9-1v-6.5h1.6v9h-1.5L145.4,84.9z"/>
	<path class="st1" d="M150.8,77.2l0.1,1.2c0.3-0.4,0.7-0.8,1.1-1c0.5-0.2,1-0.4,1.6-0.4s1.1,0.1,1.5,0.4c0.4,0.3,0.8,0.7,1,1.3
		c0.3-0.5,0.7-0.9,1.1-1.2c0.5-0.3,1-0.4,1.6-0.4c0.9,0,1.6,0.3,2.2,0.9c0.5,0.6,0.8,1.6,0.8,2.8v5.4h-1.6v-5.4
		c0-0.9-0.2-1.5-0.5-1.9s-0.8-0.6-1.4-0.6c-0.6,0-1,0.2-1.4,0.6c-0.3,0.4-0.6,0.9-0.6,1.5v0.1v5.7h-1.7v-5.4c0-0.8-0.2-1.5-0.5-1.9
		s-0.8-0.6-1.4-0.6c-0.5,0-0.9,0.1-1.2,0.3s-0.6,0.5-0.7,0.9v6.7h-1.6v-9L150.8,77.2L150.8,77.2z"/>
	<path class="st1" d="M32.9,102.5c0,1.3-0.3,2.3-0.9,3.1c-0.6,0.8-1.5,1.2-2.6,1.2c-0.6,0-1-0.1-1.5-0.3c-0.4-0.2-0.8-0.5-1.1-0.8
		v4.4h-1.6V97.6h1.3l0.3,1.2c0.3-0.4,0.7-0.8,1.1-1s1-0.3,1.5-0.3c1.1,0,2,0.4,2.6,1.3c0.6,0.9,0.9,2.1,0.9,3.5
		C32.9,102.3,32.9,102.5,32.9,102.5z M31.3,102.3c0-1-0.2-1.9-0.6-2.5c-0.4-0.7-1-1-1.8-1c-0.5,0-0.9,0.1-1.2,0.3s-0.6,0.5-0.8,0.9
		v4.4c0.2,0.4,0.5,0.7,0.8,0.9s0.7,0.3,1.2,0.3c0.8,0,1.4-0.3,1.8-0.9c0.4-0.6,0.6-1.3,0.6-2.2V102.3z"/>
	<path class="st1" d="M39.2,99.1h-0.8c-0.4,0-0.8,0.1-1.1,0.3s-0.5,0.5-0.7,0.9v6.4H35v-9h1.5l0.2,1.3c0.3-0.5,0.6-0.8,0.9-1.1
		c0.4-0.3,0.8-0.4,1.3-0.4c0.1,0,0.2,0,0.4,0s0.2,0,0.3,0.1L39.2,99.1z"/>
	<path class="st1" d="M40.4,102.1c0-1.3,0.4-2.4,1.1-3.3c0.7-0.9,1.7-1.3,2.9-1.3c1.3,0,2.2,0.4,3,1.3s1.1,2,1.1,3.3v0.2
		c0,1.3-0.4,2.4-1.1,3.3c-0.7,0.9-1.7,1.3-3,1.3c-1.2,0-2.2-0.4-3-1.3s-1.1-2-1.1-3.3L40.4,102.1L40.4,102.1z M42,102.3
		c0,1,0.2,1.7,0.6,2.4c0.4,0.6,1,0.9,1.8,0.9s1.4-0.3,1.8-0.9c0.4-0.6,0.6-1.4,0.6-2.4v-0.2c0-0.9-0.2-1.7-0.6-2.4
		c-0.4-0.6-1-0.9-1.8-0.9s-1.4,0.3-1.8,0.9c-0.4,0.6-0.6,1.4-0.6,2.4V102.3z"/>
	<path class="st1" d="M50.9,106.7v-7.8h-1.4v-1.2h1.4v-1c0-1,0.3-1.8,0.9-2.4c0.6-0.6,1.4-0.8,2.5-0.8c0.4,0,0.7,0,1.1,0.1
		c0.4,0.1,0.8,0.2,1.3,0.4l-0.3,1.3c-0.3-0.1-0.6-0.2-0.9-0.3c-0.3-0.1-0.7-0.1-1-0.1c-0.7,0-1.1,0.1-1.4,0.4
		c-0.3,0.3-0.4,0.7-0.4,1.3v1h1.8v1.2h-1.8v7.8h-1.8V106.7z M57.5,106.7h-1.7v-9h1.7V106.7z"/>
	<path class="st1" d="M65.2,104.3c0-0.4-0.1-0.7-0.4-0.9s-0.8-0.4-1.6-0.6c-1.1-0.2-1.9-0.5-2.4-1c-0.6-0.4-0.9-1-0.9-1.7
		s0.3-1.4,0.9-1.9c0.6-0.5,1.4-0.8,2.4-0.8s1.9,0.3,2.5,0.8s0.9,1.2,0.9,1.9v0.1H65c0-0.4-0.2-0.7-0.5-1.1c-0.3-0.3-0.8-0.5-1.3-0.5
		c-0.6,0-1,0.1-1.3,0.4s-0.4,0.6-0.4,0.9c0,0.4,0.1,0.6,0.4,0.8c0.2,0.2,0.8,0.4,1.5,0.5c1.1,0.2,1.9,0.6,2.5,1s0.9,1,0.9,1.7
		c0,0.8-0.3,1.5-1,2c-0.6,0.5-1.5,0.8-2.5,0.8c-1.2,0-2.1-0.3-2.7-0.9c-0.7-0.6-1-1.3-0.9-2v-0.1h1.6c0,0.6,0.2,1,0.7,1.3
		c0.4,0.3,0.9,0.4,1.4,0.4c0.6,0,1-0.1,1.4-0.4S65.2,104.6,65.2,104.3z"/>
	<path class="st1" d="M74.1,104.3c0-0.4-0.1-0.7-0.4-0.9s-0.8-0.4-1.6-0.6c-1.1-0.2-1.9-0.5-2.4-1c-0.6-0.4-0.9-1-0.9-1.7
		s0.3-1.4,0.9-1.9s1.4-0.8,2.4-0.8s1.9,0.3,2.5,0.8s0.9,1.2,0.9,1.9v0.1H74c0-0.4-0.2-0.7-0.5-1.1c-0.3-0.3-0.8-0.5-1.3-0.5
		c-0.6,0-1,0.1-1.3,0.4s-0.4,0.6-0.4,0.9c0,0.4,0.1,0.6,0.4,0.8c0.2,0.2,0.8,0.4,1.5,0.5c1.1,0.2,1.9,0.6,2.5,1s0.9,1,0.9,1.7
		c0,0.8-0.3,1.5-1,2c-0.6,0.5-1.5,0.8-2.5,0.8c-1.2,0-2.1-0.3-2.7-0.9c-0.7-0.6-1-1.3-0.9-2v-0.1h1.6c0,0.6,0.2,1,0.7,1.3
		c0.4,0.3,0.9,0.4,1.4,0.4c0.6,0,1-0.1,1.4-0.4S74.1,104.6,74.1,104.3z"/>
	<path class="st1" d="M79.6,95.4H78v-1.7h1.6V95.4z M79.6,106.7H78v-9h1.6V106.7z"/>
	<path class="st1" d="M81.7,102.1c0-1.3,0.4-2.4,1.1-3.3c0.7-0.9,1.7-1.3,2.9-1.3c1.3,0,2.2,0.4,3,1.3s1.1,2,1.1,3.3v0.2
		c0,1.3-0.4,2.4-1.1,3.3c-0.7,0.9-1.7,1.3-3,1.3c-1.2,0-2.2-0.4-3-1.3s-1.1-2-1.1-3.3L81.7,102.1L81.7,102.1z M83.4,102.3
		c0,1,0.2,1.7,0.6,2.4c0.4,0.6,1,0.9,1.8,0.9s1.4-0.3,1.8-0.9c0.4-0.6,0.6-1.4,0.6-2.4v-0.2c0-0.9-0.2-1.7-0.6-2.4
		c-0.4-0.6-1-0.9-1.8-0.9s-1.4,0.3-1.8,0.9c-0.4,0.6-0.6,1.4-0.6,2.4V102.3z"/>
	<path class="st1" d="M93.3,97.7l0.1,1.3c0.3-0.5,0.7-0.8,1.1-1.1c0.5-0.3,1-0.4,1.5-0.4c1,0,1.7,0.3,2.3,0.9
		c0.5,0.6,0.8,1.4,0.8,2.6v5.7h-1.6V101c0-0.8-0.2-1.4-0.5-1.7s-0.8-0.5-1.4-0.5c-0.5,0-0.9,0.1-1.3,0.3s-0.6,0.5-0.8,0.9v6.7h-1.6
		v-9H93.3z"/>
	<path class="st1" d="M107.1,106.7c-0.1-0.3-0.1-0.5-0.1-0.7s0-0.4-0.1-0.6c-0.3,0.4-0.7,0.8-1.2,1.1s-1,0.4-1.6,0.4
		c-0.9,0-1.7-0.2-2.1-0.7c-0.5-0.5-0.7-1.1-0.7-2s0.3-1.5,1-2s1.6-0.7,2.8-0.7h1.8v-0.9c0-0.5-0.2-0.9-0.5-1.3s-0.8-0.5-1.4-0.5
		c-0.5,0-1,0.1-1.3,0.4s-0.5,0.6-0.5,1h-1.6l0,0c0-0.7,0.3-1.3,0.9-1.8c0.7-0.5,1.5-0.8,2.5-0.8s1.8,0.3,2.5,0.8s0.9,1.3,0.9,2.2
		v4.3c0,0.3,0,0.6,0,0.9c0,0.3,0.1,0.6,0.2,0.9L107.1,106.7L107.1,106.7z M104.3,105.5c0.6,0,1.1-0.2,1.6-0.5s0.8-0.7,0.9-1.1v-1.5
		H105c-0.7,0-1.2,0.2-1.6,0.5s-0.6,0.7-0.6,1.2c0,0.4,0.1,0.7,0.4,1S103.9,105.5,104.3,105.5z"/>
	<path class="st1" d="M112.7,106.7H111v-13h1.6L112.7,106.7L112.7,106.7z"/>
	<path class="st1" d="M119.1,102.3c0-1.5,0.3-2.6,0.9-3.5s1.5-1.3,2.6-1.3c0.5,0,1,0.1,1.4,0.3s0.8,0.5,1,0.9v-5h1.6v13h-1.3
		l-0.3-1.1c-0.3,0.4-0.7,0.8-1.1,1s-0.9,0.3-1.5,0.3c-1.1,0-2-0.4-2.6-1.2s-0.9-1.8-0.9-3.1v-0.3H119.1z M120.7,102.5
		c0,0.9,0.2,1.6,0.6,2.2c0.4,0.5,1,0.8,1.7,0.8c0.5,0,0.9-0.1,1.2-0.3c0.3-0.2,0.6-0.5,0.8-0.9v-4.2c-0.2-0.4-0.5-0.7-0.8-0.9
		s-0.7-0.3-1.2-0.3c-0.8,0-1.4,0.3-1.7,1C120.9,100.6,120.7,101.4,120.7,102.5L120.7,102.5z"/>
	<path class="st1" d="M134.7,106.7c-0.1-0.3-0.1-0.5-0.1-0.7s0-0.4-0.1-0.6c-0.3,0.4-0.7,0.8-1.2,1.1s-1,0.4-1.6,0.4
		c-0.9,0-1.7-0.2-2.1-0.7c-0.5-0.5-0.7-1.1-0.7-2s0.3-1.5,1-2s1.6-0.7,2.8-0.7h1.8v-0.9c0-0.5-0.2-0.9-0.5-1.3s-0.8-0.5-1.4-0.5
		c-0.5,0-1,0.1-1.3,0.4s-0.5,0.6-0.5,1h-1.6l0,0c0-0.7,0.3-1.3,0.9-1.8c0.7-0.5,1.5-0.8,2.5-0.8s1.8,0.3,2.5,0.8s0.9,1.3,0.9,2.2
		v4.3c0,0.3,0,0.6,0,0.9c0,0.3,0.1,0.6,0.2,0.9L134.7,106.7L134.7,106.7z M132,105.5c0.6,0,1.1-0.2,1.6-0.5s0.8-0.7,0.9-1.1v-1.5
		h-1.8c-0.7,0-1.2,0.2-1.6,0.5c-0.4,0.3-0.6,0.7-0.6,1.2c0,0.4,0.1,0.7,0.4,1S131.5,105.5,132,105.5z"/>
	<path class="st1" d="M148,104.3c0-0.4-0.1-0.7-0.4-0.9s-0.8-0.4-1.6-0.6c-1.1-0.2-1.9-0.5-2.4-1c-0.6-0.4-0.9-1-0.9-1.7
		s0.3-1.4,0.9-1.9c0.6-0.5,1.4-0.8,2.4-0.8s1.9,0.3,2.5,0.8s0.9,1.2,0.9,1.9v0.1h-1.6c0-0.4-0.2-0.7-0.5-1.1
		c-0.3-0.3-0.8-0.5-1.3-0.5c-0.6,0-1,0.1-1.3,0.4s-0.4,0.6-0.4,0.9c0,0.4,0.1,0.6,0.4,0.8c0.2,0.2,0.8,0.4,1.5,0.5
		c1.1,0.2,1.9,0.6,2.5,1s0.9,1,0.9,1.7c0,0.8-0.3,1.5-1,2c-0.6,0.5-1.5,0.8-2.5,0.8c-1.2,0-2.1-0.3-2.7-0.9c-0.7-0.6-1-1.3-0.9-2
		v-0.1h1.6c0,0.6,0.2,1,0.7,1.3c0.4,0.3,0.9,0.4,1.4,0.4c0.6,0,1-0.1,1.4-0.4S148,104.6,148,104.3z"/>
	<path class="st1" d="M157.3,106.7c-0.1-0.3-0.1-0.5-0.1-0.7s0-0.4-0.1-0.6c-0.3,0.4-0.7,0.8-1.2,1.1s-1,0.4-1.6,0.4
		c-0.9,0-1.7-0.2-2.1-0.7c-0.5-0.5-0.7-1.1-0.7-2s0.3-1.5,1-2s1.6-0.7,2.8-0.7h1.8v-0.9c0-0.5-0.2-0.9-0.5-1.3s-0.8-0.5-1.4-0.5
		c-0.5,0-1,0.1-1.3,0.4s-0.5,0.6-0.5,1h-1.6l0,0c0-0.7,0.3-1.3,0.9-1.8c0.7-0.5,1.5-0.8,2.5-0.8s1.8,0.3,2.5,0.8s0.9,1.3,0.9,2.2
		v4.3c0,0.3,0,0.6,0,0.9c0,0.3,0.1,0.6,0.2,0.9L157.3,106.7L157.3,106.7z M154.5,105.5c0.6,0,1.1-0.2,1.6-0.5s0.8-0.7,0.9-1.1v-1.5
		h-1.8c-0.7,0-1.2,0.2-1.6,0.5c-0.4,0.3-0.6,0.7-0.6,1.2c0,0.4,0.1,0.7,0.4,1S154,105.5,154.5,105.5z"/>
	<path class="st1" d="M166.8,105.4c-0.3,0.5-0.6,0.9-1.1,1.1c-0.4,0.3-1,0.4-1.5,0.4c-1,0-1.8-0.3-2.3-0.9c-0.6-0.6-0.8-1.6-0.8-2.9
		v-5.3h1.6v5.3c0,1,0.1,1.6,0.4,2c0.3,0.4,0.7,0.5,1.3,0.5s1.1-0.1,1.4-0.4c0.4-0.2,0.7-0.6,0.9-1v-6.5h1.6v9h-1.5L166.8,105.4z
		 M165.5,94h1.9l0,0l-2.2,2.2H164L165.5,94z"/>
	<path class="st1" d="M170.4,102.3c0-1.5,0.3-2.6,0.9-3.5s1.5-1.3,2.6-1.3c0.5,0,1,0.1,1.4,0.3s0.8,0.5,1,0.9v-5h1.6v13h-1.3
		l-0.3-1.1c-0.3,0.4-0.7,0.8-1.1,1s-0.9,0.3-1.5,0.3c-1.1,0-2-0.4-2.6-1.2s-0.9-1.8-0.9-3.1v-0.3H170.4z M172.1,102.5
		c0,0.9,0.2,1.6,0.6,2.2c0.4,0.5,1,0.8,1.7,0.8c0.5,0,0.9-0.1,1.2-0.3s0.6-0.5,0.8-0.9v-4.2c-0.2-0.4-0.5-0.7-0.8-0.9
		s-0.7-0.3-1.2-0.3c-0.8,0-1.4,0.3-1.7,1C172.3,100.6,172.1,101.4,172.1,102.5L172.1,102.5z"/>
	<path class="st1" d="M184.2,106.9c-1.3,0-2.3-0.4-3-1.2s-1.1-1.9-1.1-3.3V102c0-1.3,0.4-2.4,1.1-3.2s1.7-1.3,2.7-1.3
		c1.2,0,2.1,0.4,2.7,1.1c0.6,0.8,0.9,1.7,0.9,3v0.9h-5.8l0,0c0,0.9,0.2,1.6,0.6,2.2c0.4,0.6,1,0.8,1.8,0.8c0.6,0,1-0.1,1.5-0.2
		s0.8-0.4,1.1-0.7l0.6,1.1c-0.3,0.3-0.7,0.6-1.3,0.8C185.6,106.8,185,106.9,184.2,106.9z M184,98.8c-0.6,0-1,0.2-1.4,0.7
		c-0.4,0.4-0.6,1-0.7,1.7l0,0h4.1v-0.1c0-0.7-0.2-1.2-0.5-1.6C185.2,99,184.7,98.8,184,98.8z"/>
	<path class="st1" d="M191.2,103.3c0-0.8,0.1-1.4,0.2-1.7c0.1-0.3,0.5-0.7,1.1-1.2c0.6-0.7,0.9-1.2,1.2-1.5s0.4-0.8,0.4-1.3
		c0-0.6-0.2-1-0.5-1.4c-0.3-0.3-0.8-0.5-1.3-0.5s-0.9,0.1-1.3,0.4c-0.4,0.3-0.5,0.7-0.5,1.2h-1.6l0,0c0-0.9,0.3-1.6,0.9-2.2
		s1.5-0.8,2.5-0.8c1.1,0,1.9,0.3,2.6,0.8c0.6,0.6,0.9,1.3,0.9,2.3c0,0.7-0.2,1.4-0.6,2c-0.4,0.6-0.9,1.2-1.6,1.8
		c-0.3,0.3-0.5,0.6-0.5,0.8c-0.1,0.2-0.1,0.6-0.1,1.1h-1.8V103.3z M192.9,106.7h-1.7V105h1.7V106.7z"/>
</g>
</svg>
