<?xml version="1.0" encoding="utf-8"?>
<!-- Generator: Adobe Illustrator 18.1.1, SVG Export Plug-In . SVG Version: 6.00 Build 0)  -->
<svg version="1.1" id="Layer_1" xmlns="http://www.w3.org/2000/svg" xmlns:xlink="http://www.w3.org/1999/xlink" x="0px" y="0px"
	 viewBox="0 0 280 121" enable-background="new 0 0 280 121" xml:space="preserve">
<g>
	<defs>
		<rect id="SVGID_1_" y="-1" width="279.8" height="124"/>
	</defs>
	<clipPath id="SVGID_2_">
		<use xlink:href="#SVGID_1_"  overflow="visible"/>
	</clipPath>
	<g clip-path="url(#SVGID_2_)">
		<rect x="-14" y="-119" fill="#3D93CB" width="295" height="293"/>
		<g>
			<defs>
				<rect id="SVGID_3_" x="-14" y="-119" width="295" height="293"/>
			</defs>
			<clipPath id="SVGID_4_">
				<use xlink:href="#SVGID_3_"  overflow="visible"/>
			</clipPath>
		</g>
	</g>
</g>
<g opacity="0.41">
	<path fill="#11567C" d="M148.9,110.5h-2.3v-2.7H144v2.7h-1.1h-6l-1.3,3.4h2.3v9.4H148v-9.4h2.2L148.9,110.5z M141.9,118.6h-2v-2.7
		h2V118.6z M146.6,118.6h-2v-2.7h2V118.6z"/>
	<path fill="#11567C" d="M13.1,112.3h-2.8v-2.7H9v2.7H7.6H2L0.8,117H3v6.7h9.4V117h2L13.1,112.3z M6.3,121H5v-2.7h1.3V121z M9.7,121
		H9v-2.7h0.7V121z"/>
	<path fill="#11567C" d="M120.4,69v-6.7h-2.7V69h-1.3v-0.5c0-1.8-1.2-3.5-3-3.5H109c-1.8,0-3.3,1.7-3.3,3.5V69h-1.3v54.4h16.8V69
		H120.4z M109.7,120.6h-2v-4h2V120.6z M109.7,114.6h-2v-4h2V114.6z M109.7,107.9h-2v-4h2V107.9z M109.7,101.9h-2v-3.4h2V101.9z
		 M109.7,95.8h-2v-4h2V95.8z M109.7,89.8h-2v-4h2V89.8z M109.7,83.7h-2v-4h2V83.7z M109.7,77h-2v-4h2V77z M113.7,120.6h-2v-4h2
		V120.6z M113.7,114.6h-2v-4h2V114.6z M113.7,107.9h-2v-4h2V107.9z M113.7,101.9h-2v-3.4h2V101.9z M113.7,95.8h-2v-4h2V95.8z
		 M113.7,89.8h-2v-4h2V89.8z M113.7,83.7h-2v-4h2V83.7z M113.7,77h-2v-4h2V77z M117.7,120.6h-2v-4h2V120.6z M117.7,114.6h-2v-4h2
		V114.6z M117.7,107.9h-2v-4h2V107.9z M117.7,101.9h-2v-3.4h2V101.9z M117.7,95.8h-2v-4h2V95.8z M117.7,89.8h-2v-4h2V89.8z
		 M117.7,83.7h-2v-4h2V83.7z M117.7,77h-2v-4h2V77z"/>
	<path fill="#11567C" d="M76.8,48.2v-4.7H62v4.7h4v6h-4v1.3h4v6.7h-4v1.3h4v6h-4V71h4v6.7h-4V79h4v6.7h-4v0.7h4v6.7h-4v1.3h4v6h-4
		v1.3h4v6.7h-4v1.3h4v6.7h-4v7.4h14.8v-7.4h-4v-6.7h4v-1.3h-4v-6.7h4v-1.3h-4v-6h4v-1.3h-4v-6.7h4v-0.7h-4V79h4v-1.3h-4V71h4v-1.3
		h-4v-6h4v-1.3h-4v-6.7h4v-1.3h-4v-6H76.8z M71.4,116.6h-4v-6.7h4V116.6z M71.4,108.6h-4v-6.7h4V108.6z M71.4,100.5h-4v-6h4V100.5z
		 M71.4,93.1h-4v-6.7h4V93.1z M71.4,85.8h-4V79h4V85.8z M71.4,77.7h-4V71h4V77.7z M71.4,69.6h-4v-6h4V69.6z M71.4,62.3h-4v-6.7h4
		V62.3z M71.4,54.2h-4v-6h4V54.2z"/>
	<g>
		<g>
			<path fill="#11567C" d="M76,46.8V123h13V54.4L76,46.8z M83,120h-2v-4h2V120z M83,115h-2v-3h2V115z M83,110h-2v-4h2V110z M83,104
				h-2v-4h2V104z M83,99h-2v-4h2V99z M83,93h-2v-3h2V93z M83,88h-2v-3h2V88z M83,83h-2v-3h2V83z M83,77h-2v-3h2V77z M83,72h-2v-3h2
				V72z M83,67h-2v-3h2V67z M83,61h-2v-3h2V61z M89,120h-2v-4h2V120z M89,115h-2v-3h2V115z M89,110h-2v-4h2V110z M89,104h-2v-4h2
				V104z M89,99h-2v-4h2V99z M89,93h-2v-3h2V93z M89,88h-2v-3h2V88z M89,83h-2v-3h2V83z M89,77h-2v-3h2V77z M89,72h-2v-3h2V72z
				 M89,67h-2v-3h2V67z M89,61h-2v-3h2V61z"/>
		</g>
		<g>
			<path fill="#11567C" d="M89,28.9V123h15V38.3L89,28.9z M96,119h-4v-3h4V119z M96,113h-4v-3h4V113z M96,108h-4v-3h4V108z M96,103
				h-4v-4h4V103z M96,97h-4v-3h4V97z M96,92h-4v-4h4V92z M96,87h-4v-4h4V87z M96,81h-4v-4h4V81z M96,77h-4v-5h4V77z M96,71h-4v-4h4
				V71z M96,65h-4v-3h4V65z M96,60h-4v-3h4V60z M96,55h-4v-4h4V55z M96,49h-4v-3h4V49z M96,44h-4v-3h4V44z M101,119h-3v-3h3V119z
				 M101,113h-3v-3h3V113z M101,108h-3v-3h3V108z M101,103h-3v-4h3V103z M101,97h-3v-3h3V97z M101,92h-3v-4h3V92z M101,87h-3v-4h3
				V87z M101,81h-3v-4h3V81z M101,77h-3v-5h3V77z M101,71h-3v-4h3V71z M101,65h-3v-3h3V65z M101,60h-3v-3h3V60z M101,55h-3v-4h3V55z
				 M101,49h-3v-3h3V49z M101,44h-3v-3h3V44z"/>
		</g>
	</g>
	<path fill="#11567C" d="M58,69.6V68c0-1.6-1.4-3-3.1-3h-3.4c-1.6,0-2.9,1.4-2.9,3v1.7h-2.7v53.7h18.8V69.6H58z M52.6,116.6h-2.7
		v-4.7h2.7V116.6z M52.6,107.9h-2.7v-5.4h2.7V107.9z M52.6,99.2h-2.7v-5.4h2.7V99.2z M52.6,90.4h-2.7v-6h2.7V90.4z M52.6,81.1h-2.7
		v-5.4h2.7V81.1z M60,116.6h-2v-4.7h2V116.6z M60,107.9h-2v-5.4h2V107.9z M60,99.2h-2v-5.4h2V99.2z M60,90.4h-2v-6h2V90.4z M60,81.1
		h-2v-5.4h2V81.1z"/>
	<path fill="#11567C" d="M42.6,78.4v-4.7h-4v4.7H27.8v45h18.1v-45H42.6z M35.2,111.3h-2.7v-3.4h2.7V111.3z M35.2,105.2h-2.7v-4h2.7
		V105.2z M35.2,99.2h-2.7v-4h2.7V99.2z M35.2,93.1h-2.7v-3.4h2.7V93.1z M35.2,87.1h-2.7v-3.4h2.7V87.1z M41.2,111.3h-2v-3.4h2V111.3
		z M41.2,105.2h-2v-4h2V105.2z M41.2,99.2h-2v-4h2V99.2z M41.2,93.1h-2v-3.4h2V93.1z M41.2,87.1h-2v-3.4h2V87.1z"/>
	<path fill="#11567C" d="M22.4,83.1v-2.7h-2.7V79h-3.4v4h-2v40.3h13.4V83.1H22.4z M19.7,113.9H17v-4.7h2.7V113.9z M19.7,107.2H17
		v-5.4h2.7V107.2z M19.7,99.2H17v-4.7h2.7V99.2z M19.7,92.5H17v-4.7h2.7V92.5z M23.7,113.9h-2v-4.7h2V113.9z M23.7,107.2h-2v-5.4h2
		V107.2z M23.7,99.2h-2v-4.7h2V99.2z M23.7,92.5h-2v-4.7h2V92.5z"/>
	<g>
		<rect x="124" y="87" fill="#11567C" width="3" height="5"/>
		<rect x="124" y="93" fill="#11567C" width="3" height="6"/>
		<rect x="124" y="99" fill="#11567C" width="3" height="5"/>
		<rect x="124" y="106" fill="#11567C" width="3" height="5"/>
		<rect x="124" y="113" fill="#11567C" width="3" height="3"/>
		<path fill="#11567C" d="M121.1,84.4v38.9h14.1V84.4H121.1z M127.1,116.6h-3.4v-4h3.4V116.6z M127.1,111.3h-3.4v-4.7h3.4V111.3z
			 M127.1,103.9h-3.4v-4h3.4V103.9z M127.1,98.5h-3.4v-4.7h3.4V98.5z M127.1,91.8h-3.4v-4.7h3.4V91.8z M131.8,116.6h-2v-4h2V116.6z
			 M131.8,111.3h-2v-4.7h2V111.3z M131.8,103.9h-2v-4h2V103.9z M131.8,98.5h-2v-4.7h2V98.5z M131.8,91.8h-2v-4.7h2V91.8z"/>
	</g>
	<path fill="#11567C" d="M164,112.3h-2.8v-2.7h-1.3v2.7h-1.4h-5.5l-1.2,4.7h2.1v6.7h9.4V117h2L164,112.3z M157.2,121h-1.3v-2.7h1.3
		V121z M160.5,121h-0.7v-2.7h0.7V121z"/>
	<path fill="#11567C" d="M271.2,69v-6.7h-2.7V69h-1.3v-0.5c0-1.8-1.2-3.5-3-3.5h-4.4c-1.8,0-3.3,1.7-3.3,3.5V69h-1.3v54.4h16.8V69
		H271.2z M260.5,120.6h-2v-4h2V120.6z M260.5,114.6h-2v-4h2V114.6z M260.5,107.9h-2v-4h2V107.9z M260.5,101.9h-2v-3.4h2V101.9z
		 M260.5,95.8h-2v-4h2V95.8z M260.5,89.8h-2v-4h2V89.8z M260.5,83.7h-2v-4h2V83.7z M260.5,77h-2v-4h2V77z M264.5,120.6h-2v-4h2
		V120.6z M264.5,114.6h-2v-4h2V114.6z M264.5,107.9h-2v-4h2V107.9z M264.5,101.9h-2v-3.4h2V101.9z M264.5,95.8h-2v-4h2V95.8z
		 M264.5,89.8h-2v-4h2V89.8z M264.5,83.7h-2v-4h2V83.7z M264.5,77h-2v-4h2V77z M268.6,120.6h-2v-4h2V120.6z M268.6,114.6h-2v-4h2
		V114.6z M268.6,107.9h-2v-4h2V107.9z M268.6,101.9h-2v-3.4h2V101.9z M268.6,95.8h-2v-4h2V95.8z M268.6,89.8h-2v-4h2V89.8z
		 M268.6,83.7h-2v-4h2V83.7z M268.6,77h-2v-4h2V77z"/>
	<path fill="#11567C" d="M227.6,48.2v-4.7h-14.8v4.7h4v6h-4v1.3h4v6.7h-4v1.3h4v6h-4V71h4v6.7h-4V79h4v6.7h-4v0.7h4v6.7h-4v1.3h4v6
		h-4v1.3h4v6.7h-4v1.3h4v6.7h-4v7.4h14.8v-7.4h-4v-6.7h4v-1.3h-4v-6.7h4v-1.3h-4v-6h4v-1.3h-4v-6.7h4v-0.7h-4V79h4v-1.3h-4V71h4
		v-1.3h-4v-6h4v-1.3h-4v-6.7h4v-1.3h-4v-6H227.6z M222.2,116.6h-4v-6.7h4V116.6z M222.2,108.6h-4v-6.7h4V108.6z M222.2,100.5h-4v-6
		h4V100.5z M222.2,93.1h-4v-6.7h4V93.1z M222.2,85.8h-4V79h4V85.8z M222.2,77.7h-4V71h4V77.7z M222.2,69.6h-4v-6h4V69.6z
		 M222.2,62.3h-4v-6.7h4V62.3z M222.2,54.2h-4v-6h4V54.2z"/>
	<g>
		<path fill="#11567C" d="M240,28.9V123h15V38.3L240,28.9z M247,119h-4v-3h4V119z M247,113h-4v-3h4V113z M247,108h-4v-3h4V108z
			 M247,103h-4v-4h4V103z M247,97h-4v-3h4V97z M247,92h-4v-4h4V92z M247,87h-4v-4h4V87z M247,81h-4v-4h4V81z M247,77h-4v-5h4V77z
			 M247,71h-4v-4h4V71z M247,65h-4v-3h4V65z M247,60h-4v-3h4V60z M247,55h-4v-4h4V55z M247,49h-4v-3h4V49z M247,44h-4v-3h4V44z
			 M252,119h-3v-3h3V119z M252,113h-3v-3h3V113z M252,108h-3v-3h3V108z M252,103h-3v-4h3V103z M252,97h-3v-3h3V97z M252,92h-3v-4h3
			V92z M252,87h-3v-4h3V87z M252,81h-3v-4h3V81z M252,77h-3v-5h3V77z M252,71h-3v-4h3V71z M252,65h-3v-3h3V65z M252,60h-3v-3h3V60z
			 M252,55h-3v-4h3V55z M252,49h-3v-3h3V49z M252,44h-3v-3h3V44z"/>
	</g>
	<path fill="#11567C" d="M208.8,69.6V68c0-1.6-1.4-3-3.1-3h-3.4c-1.6,0-2.9,1.4-2.9,3v1.7h-2.7v53.7h18.8V69.6H208.8z M203.5,116.6
		h-2.7v-4.7h2.7V116.6z M203.5,107.9h-2.7v-5.4h2.7V107.9z M203.5,99.2h-2.7v-5.4h2.7V99.2z M203.5,90.4h-2.7v-6h2.7V90.4z
		 M203.5,81.1h-2.7v-5.4h2.7V81.1z M210.8,116.6h-2v-4.7h2V116.6z M210.8,107.9h-2v-5.4h2V107.9z M210.8,99.2h-2v-5.4h2V99.2z
		 M210.8,90.4h-2v-6h2V90.4z M210.8,81.1h-2v-5.4h2V81.1z"/>
	<path fill="#11567C" d="M193.4,78.4v-4.7h-4v4.7h-10.7v45h18.1v-45H193.4z M186,111.3h-2.7v-3.4h2.7V111.3z M186,105.2h-2.7v-4h2.7
		V105.2z M186,99.2h-2.7v-4h2.7V99.2z M186,93.1h-2.7v-3.4h2.7V93.1z M186,87.1h-2.7v-3.4h2.7V87.1z M192.1,111.3h-2v-3.4h2V111.3z
		 M192.1,105.2h-2v-4h2V105.2z M192.1,99.2h-2v-4h2V99.2z M192.1,93.1h-2v-3.4h2V93.1z M192.1,87.1h-2v-3.4h2V87.1z"/>
	<path fill="#11567C" d="M173.2,83.1v-2.7h-2.7V79h-3.4v4h-2v40.3h13.4V83.1H173.2z M170.5,113.9h-2.7v-4.7h2.7V113.9z M170.5,107.2
		h-2.7v-5.4h2.7V107.2z M170.5,99.2h-2.7v-4.7h2.7V99.2z M170.5,92.5h-2.7v-4.7h2.7V92.5z M174.5,113.9h-2v-4.7h2V113.9z
		 M174.5,107.2h-2v-5.4h2V107.2z M174.5,99.2h-2v-4.7h2V99.2z M174.5,92.5h-2v-4.7h2V92.5z"/>
	<g>
		<rect x="275" y="87" fill="#11567C" width="3" height="5"/>
		<rect x="275" y="93" fill="#11567C" width="3" height="6"/>
		<rect x="275" y="99" fill="#11567C" width="3" height="5"/>
		<rect x="275" y="106" fill="#11567C" width="3" height="5"/>
		<rect x="275" y="113" fill="#11567C" width="3" height="3"/>
		<path fill="#11567C" d="M271.9,84.4v38.9H286V84.4H271.9z M277.9,116.6h-3.4v-4h3.4V116.6z M277.9,111.3h-3.4v-4.7h3.4V111.3z
			 M277.9,103.9h-3.4v-4h3.4V103.9z M277.9,98.5h-3.4v-4.7h3.4V98.5z M277.9,91.8h-3.4v-4.7h3.4V91.8z M282.6,116.6h-2v-4h2V116.6z
			 M282.6,111.3h-2v-4.7h2V111.3z M282.6,103.9h-2v-4h2V103.9z M282.6,98.5h-2v-4.7h2V98.5z M282.6,91.8h-2v-4.7h2V91.8z"/>
	</g>
</g>
<g opacity="0.43">
	<path fill="#FFFFFF" d="M225.9,20.6C225.9,20.6,225.9,20.6,225.9,20.6c-0.1-0.3-0.2-0.6-0.4-0.8c-0.3-0.3-0.6-0.5-1-0.5
		c-0.2,0-0.3,0-0.5,0c-0.2-0.6-0.7-1.1-1.4-1.1c-0.3,0-0.6,0.1-0.8,0.2c-0.2-0.5-0.7-1-1.2-1c-0.8,0-1.5,0.5-1.5,1.3
		c0,0.2,0,0.5,0.1,0.7c-0.2-0.2-0.4-0.3-0.7-0.3c-0.7,0-1.3,0.4-1.4,1.2c0,0.6,0.5,1.4,1.2,1.4c0.1,0,0.2,0,0.3,0
		c0,0.2,0,0.4,0.1,0.6c0.2,0.4,0.6,0.7,1.1,0.7c0.2,0,0.5,0,0.7-0.1c0.1-0.1,0.3-0.2,0.4-0.3c0.1,0.1,0.2,0.2,0.3,0.2
		c0.2,0.1,0.5,0.2,0.7,0.3c0.3,0,0.5,0,0.8-0.2c0.3-0.1,0.5-0.3,0.7-0.6c0.1-0.1,0.1-0.2,0.1-0.3c0.2,0.2,0.5,0.3,0.9,0.3
		c0.4,0,0.8-0.1,1.1-0.4c0.2-0.2,0.3-0.4,0.4-0.6C226,21.1,226,20.9,225.9,20.6z"/>
	<path fill="#FFFFFF" d="M18.9,25.7c-0.1-0.1-0.2-0.2-0.4-0.4C18.3,25.2,18,25,17.7,25c-0.2,0-0.3,0-0.5,0c-0.2,0-0.3,0.1-0.4,0.1
		c-0.1-0.9-0.7-1.7-1.7-1.8c-1-0.1-2,0.6-2.2,1.6c0,0.1,0,0.2,0,0.3c-0.2-0.1-0.4-0.2-0.7-0.2c-0.5-0.1-1,0.1-1.3,0.4h0
		c-0.1,0.1-0.2,0.2-0.3,0.3c-0.2,0.3-0.3,0.5-0.3,0.8c-0.1,0.5,0.1,1,0.4,1.3c0.3,0.4,0.7,0.6,1.2,0.7c0.2,0,0.5,0,0.8-0.1
		c0.1,0.3,0.2,0.5,0.4,0.7c0.1,0.1,0.2,0.2,0.4,0.4c0.3,0.2,0.6,0.3,0.9,0.4c0.2,0,0.3,0,0.5,0c0.4,0,0.7-0.2,1-0.4
		c0.3-0.3,0.6-0.6,0.7-1c0.2,0.1,0.5,0.2,0.7,0.3c0.2,0,0.3,0,0.5,0c0.4,0,0.7-0.2,1-0.4c0.4-0.3,0.7-0.8,0.7-1.3
		C19.4,26.7,19.3,26.1,18.9,25.7z"/>
	<path fill="#FFFFFF" d="M207.4,44.2c-0.4,0-0.7,0.2-1,0.4c-0.4-0.6-0.9-1-1.6-1c0-0.1,0.1-0.3,0.1-0.4c0-0.6-0.2-1.1-0.6-1.5
		c-0.4-0.4-0.9-0.6-1.4-0.6c-0.5,0-1.1,0.2-1.5,0.6l0,0L201,42c-0.2,0.3-0.3,0.6-0.3,1c0,0.2,0,0.4,0.1,0.5c-0.1,0-0.2,0-0.3,0
		c-0.6,0-1.1,0.2-1.5,0.6c-0.2,0.2-0.3,0.4-0.4,0.6c-0.3-0.1-0.7-0.2-1-0.1c-0.2,0.1-0.3,0.1-0.5,0.2c-0.4,0.2-0.7,0.6-0.8,1
		c-0.1,0.4-0.1,0.4,0,0.9c0,0.2,0.1,0.3,0.2,0.5c0.3,0.5,0.8,0.8,1.3,0.8c0.3,0,0.5-0.1,0.8-0.2c0.2-0.1,0.3-0.2,0.4-0.3
		c0,0,0.1-0.1,0.1-0.1c0.2,0.2,0.5,0.3,0.8,0.4c0.4,0.1,0.7,0.1,1.1,0c0.1,0,0.2,0,0.4,0c0.4-0.1,0.7-0.3,1-0.5
		c0.1-0.1,0.1-0.1,0.2-0.2c0.4,0.7,1.1,1.2,1.9,1.2c0.8,0,1.4-0.4,1.9-0.9c0.2,0.2,0.6,0.3,1,0.3C209.4,47.3,209.5,44,207.4,44.2z"
		/>
	<path fill="#FFFFFF" d="M274,5.7c-0.3,0-0.6,0.1-0.8,0.2C273,5.3,272.4,5,271.8,5c-0.4,0-0.7,0.1-1,0.2c-0.1-0.2-0.2-0.3-0.3-0.4
		c-0.3-0.3-0.8-0.6-1.2-0.6l-0.5,0c-0.3,0.1-0.6,0.2-0.9,0.4c-0.3,0.3-0.5,0.6-0.6,1c-0.1-0.1-0.3-0.1-0.4-0.1
		c-0.3,0-0.6,0.1-0.9,0.3c-0.2,0.2-0.4,0.5-0.4,0.8c0,0.3,0.1,0.7,0.3,0.9c0.2,0.2,0.5,0.4,0.8,0.4c0.2,0,0.5,0,0.7-0.1
		c0,1,0.8,2,1.8,2c0.8,0,1.5-0.4,1.9-1c0.1,0,0.3,0.1,0.4,0.1c0.6,0,1.1-0.2,1.5-0.6c0.2,0.2,0.5,0.3,0.8,0.3
		C275.7,8.5,275.9,5.7,274,5.7z"/>
	<path fill="#FFFFFF" d="M64,20.3c-0.2-0.1-0.3-0.3-0.5-0.4c-0.3-0.2-0.7-0.4-1.1-0.4c-0.2,0-0.4,0-0.6,0c-0.3,0.1-0.6,0.2-0.9,0.3
		c-0.2-0.3-0.4-0.7-0.6-1c-0.4-0.5-1-0.8-1.6-1c-0.6-0.2-1.2-0.3-1.9-0.1c-0.1,0-0.1,0-0.2,0c-0.4,0.1-0.8,0.2-1.2,0.5
		c0-0.1,0-0.2,0-0.2c0.1-0.8-0.2-1.6-0.7-2.2c-0.2-0.2-0.4-0.3-0.6-0.5c-0.4-0.3-0.9-0.5-1.4-0.5c-0.3,0-0.5,0-0.8,0
		c-0.5,0.1-1,0.3-1.4,0.7c-0.6,0.5-0.9,1.2-1,2c0,0.3,0,0.5,0.1,0.8c-0.2,0-0.3-0.1-0.5-0.1c-1.6,0-3,1-3.1,2.6
		C46,22.4,47.1,24,48.7,24c0.1,0,0.2,0,0.4,0c0.1,1.6,1.5,3.3,3.2,3.3c1.7,0,3.2-0.9,3.6-2.5c0.4,0.2,0.8,0.3,1.2,0.3
		c0.1,0,0.1,0,0.2,0c1,0.1,2-0.3,2.7-0.9c0.2-0.2,0.4-0.4,0.6-0.6c0.1,0.1,0.2,0.2,0.3,0.3c0.3,0.2,0.7,0.4,1.1,0.4
		c0.2,0,0.4,0,0.6,0c0.4-0.1,0.8-0.3,1.1-0.5c0.5-0.4,0.7-1,0.8-1.6C64.6,21.4,64.4,20.8,64,20.3z"/>
	<path fill="#FFFFFF" d="M190.4,15.8c0-0.1,0-0.2,0-0.3c-0.1-0.8-0.8-1.5-1.6-1.8c-0.4-0.1-0.8-0.2-1.2-0.1l-0.6,0.2
		c-0.3,0.2-0.6,0.4-0.8,0.7c-0.1-0.2-0.2-0.4-0.4-0.5c-0.5-0.5-1.1-0.8-1.8-0.9c-0.2,0-0.5,0-0.7,0c-0.1,0-0.1,0-0.1,0h0
		c-0.5,0-0.9,0.3-1.3,0.7c-0.5,0.4-0.8,1.1-0.9,1.7c-0.4-0.2-0.9-0.3-1.4-0.2c-0.2,0-0.5,0.1-0.7,0.2l-0.5,0.3
		c-0.3,0.3-0.5,0.6-0.6,0.9c-0.3,0.7-0.1,1.6,0.4,2.1c0.5,0.6,1.3,0.8,2,0.7c0.1,0,0.2,0,0.2-0.1c0.1,0.5,0.3,0.9,0.6,1.2
		c0.2,0.1,0.3,0.3,0.5,0.4c0.4,0.2,0.8,0.4,1.2,0.4c0.2,0,0.4,0,0.6,0c0.4-0.1,0.8-0.3,1.2-0.6c0,0,0.1-0.1,0.1-0.1
		c0.4,0.3,0.9,0.5,1.4,0.5c1,0,1.9-0.5,2.4-1.3c0.3,0.2,0.6,0.3,0.9,0.3c1.3,0,2.4-0.8,2.5-2.1C192,17.2,191.3,16.1,190.4,15.8z"/>
	<path fill="#FFFFFF" d="M124.4,19.8c0-0.1,0-0.2,0-0.3c-0.1-0.8-0.8-1.5-1.6-1.8c-0.4-0.1-0.8-0.2-1.2-0.1l-0.6,0.2
		c-0.3,0.2-0.6,0.4-0.8,0.7c-0.1-0.2-0.2-0.4-0.4-0.5c-0.5-0.5-1.1-0.8-1.8-0.9c-0.2,0-0.5,0-0.7,0c-0.1,0-0.1,0-0.1,0h0
		c-0.5,0-0.9,0.3-1.3,0.7c-0.5,0.4-0.8,1.1-0.9,1.7c-0.4-0.2-0.9-0.3-1.4-0.2c-0.2,0-0.5,0.1-0.7,0.2l-0.5,0.3
		c-0.3,0.3-0.5,0.6-0.6,0.9c-0.3,0.7-0.1,1.6,0.4,2.1c0.5,0.6,1.3,0.8,2,0.7c0.1,0,0.2,0,0.2-0.1c0.1,0.5,0.3,0.9,0.6,1.2
		c0.2,0.1,0.3,0.3,0.5,0.4c0.4,0.2,0.8,0.4,1.2,0.4c0.2,0,0.4,0,0.6,0c0.4-0.1,0.8-0.3,1.2-0.6c0,0,0.1-0.1,0.1-0.1
		c0.4,0.3,0.9,0.5,1.4,0.5c1,0,1.9-0.5,2.4-1.3c0.3,0.2,0.6,0.3,0.9,0.3c1.3,0,2.4-0.8,2.5-2.1C126,21.2,125.3,20.1,124.4,19.8z"/>
	<path fill="#FFFFFF" d="M166,44.1c-0.1-0.5-0.3-0.9-0.6-1.3c-0.5-0.5-1.2-0.9-1.9-0.9c-0.3,0-0.5,0-0.8,0.1
		c-0.1-0.4-0.3-0.8-0.6-1.1c-0.2-0.2-0.4-0.3-0.6-0.5c-0.4-0.3-0.9-0.4-1.4-0.5l-0.7,0c-0.5,0.1-1,0.3-1.4,0.7
		c-0.1,0.1-0.3,0.3-0.4,0.4c-0.1-0.1-0.1-0.2-0.2-0.3c-0.2-0.1-0.3-0.3-0.5-0.4c-0.4-0.2-0.8-0.4-1.2-0.4c-0.2,0-0.4,0-0.6,0
		c-0.4,0.1-0.8,0.3-1.2,0.6c-0.5,0.4-0.8,1-0.8,1.7c0,0.2,0,0.4,0,0.6c-0.2,0-0.3,0-0.5,0c-1,0.2-1.8,1.1-1.9,2.1
		c-0.1,0.8,0.3,1.6,1,2.1c0.3,0.2,0.7,0.3,1.1,0.4c0.2,0,0.4,0,0.6,0c0.2,0,0.4-0.1,0.5-0.2c0.1,0.3,0.3,0.6,0.5,0.9
		c0.3,0.3,0.6,0.5,1,0.6c0.4,0.1,0.8,0.2,1.2,0.1c0.2-0.1,0.5-0.1,0.7-0.2c0.2-0.1,0.4-0.2,0.5-0.3c0.1,0.1,0.1,0.1,0.2,0.2
		c0.4,0.3,0.8,0.4,1.3,0.4c0.2,0,0.5,0,0.7,0c0.5-0.1,0.9-0.3,1.3-0.6c0.2-0.2,0.4-0.4,0.5-0.6c0.3,0.2,0.7,0.3,1.1,0.3
		c0.2,0,0.5,0,0.7,0c0.6-0.1,0.9-0.3,1.4-0.7c0.4-0.3,0.7-0.9,0.9-1.3C166.1,45.2,166.1,44.7,166,44.1z"/>
	<path fill="#FFFFFF" d="M94,2.8C94,2.5,93.8,2.2,93.6,2c-0.3-0.4-0.8-0.6-1.2-0.6c-0.2,0-0.4,0-0.5,0c-0.1-0.3-0.2-0.5-0.4-0.7
		c-0.1-0.1-0.2-0.2-0.4-0.3C90.8,0.2,90.5,0,90.2,0l-0.5,0c-0.3,0.1-0.6,0.2-0.9,0.4c-0.1,0.1-0.2,0.2-0.2,0.3
		c0-0.1-0.1-0.1-0.2-0.2c-0.1-0.1-0.2-0.2-0.3-0.3C87.8,0.1,87.5,0,87.2,0c-0.1,0-0.3,0-0.4,0c-0.3,0.1-0.6,0.2-0.8,0.4
		c-0.3,0.3-0.5,0.7-0.6,1.1c0,0.1,0,0.3,0,0.4c-0.1,0-0.2,0-0.3,0c-0.7,0.1-1.2,0.7-1.2,1.4c0,0.5,0.2,1.1,0.7,1.4
		C84.8,4.9,85.1,5,85.3,5c0.1,0,0.3,0,0.4,0c0.1,0,0.2-0.1,0.4-0.1c0.1,0.2,0.2,0.4,0.3,0.6c0.2,0.2,0.4,0.3,0.6,0.4
		c0.2,0.1,0.5,0.1,0.8,0.1c0.2,0,0.3-0.1,0.5-0.2c0.1-0.1,0.2-0.1,0.3-0.2c0,0,0.1,0.1,0.1,0.1c0.3,0.2,0.5,0.3,0.9,0.3
		c0.2,0,0.3,0,0.5,0c0.3-0.1,0.6-0.2,0.8-0.4c0.1-0.1,0.3-0.3,0.4-0.4c0.2,0.1,0.5,0.2,0.7,0.2c0.2,0,0.3,0,0.5,0
		c0.4-0.1,0.6-0.2,0.9-0.4c0.3-0.2,0.5-0.6,0.6-0.9C94.1,3.5,94.1,3.2,94,2.8z"/>
</g>
<g>
	<g>
		<path fill="#F7F8F9" d="M249.6,73.2c0,0,0,7-3.6,16.8c-3.6,9.9-14.8,27.2-43.6,37.5c0,0,2.3,9.8,1.1,13.5c0,0,45-10.2,53.3-62.6
			L249.6,73.2z"/>
	</g>
	<path fill="#5F2917" d="M275.7,46.9c0,0,0.7,12.7,8,20.5c7.2,7.8,4.3,27.4,4.3,27.4s-1.8-20.5-12.7-25.1
		c-0.4,17.1,1.4,21.5-19.9,27.9c-21.4,6.3-51.8,10.4-62.3,7.8c13-8.9,34.4-30.2,30.1-47.3C218.9,41,275.7,46.9,275.7,46.9z"/>
	<path fill="#F7F8F9" d="M262.8,77.4c0,0,24.6,5,32.2,28.5c7.6,23.5-12.6,30.1-12.6,30.1s-6-1.8-6.4-9.6c0,0,27.7-14-9.1-38.3
		C266.9,88.1,254.1,82.3,262.8,77.4z"/>
	<path fill="#F7F8F9" d="M244.4,75.4c0,0-6.5,0.8-8.4,0.8c-1.9,0-7.1,21.2-7.8,24.8c-0.7,3.6,1,7.6,1,7.6s-11.2,50.1-11.8,65.6
		l18.7,2.7v1.9c0,0,24.9,1.5,39.1-3.4c0,0-8.6-71.1-7.6-83.8c1.1-12.7-1.7-13.2-4.9-14.1c-3.3-0.9-8.8-1.5-9.7-1.3
		C252.1,76.3,244.4,75.4,244.4,75.4z"/>
	<path fill="#FEE2CB" d="M243.6,68.8c0,0,0.3,7.1-1,8.6c0,0,3.7,7.9,10.3,2.9c4.1-2,1.3-5.1,1.3-5.1s-0.4-5,0.4-8.3
		C255.3,63.6,246.9,62.6,243.6,68.8z"/>
	<g>
		<path fill="#5F2917" d="M219.2,17.3c0,0-13.2,12.5,2.3,26.4S230.8,11.5,219.2,17.3z"/>
		<path fill="#FEE2CB" d="M222.8,21.1c0,0-6.6,35,4.9,42.6c11.5,7.6,26.3,6.9,34.1,0c7.8-6.9,8.8-20.9,7.7-31.4
			C268.5,21.7,235.5,5.1,222.8,21.1z"/>
		<g>
			<path fill="#010101" d="M256.7,34.6c0,0-2.3-3.1-6-3c-3.7,0.2-4.2,3.9-4.2,3.9s3.1-2.6,5.1-2.6C254.4,33,256.7,34.6,256.7,34.6z"
				/>
			<ellipse fill="#010101" cx="253.2" cy="34.6" rx="2.1" ry="2.3"/>
		</g>
		<g>
			<path fill="#010101" d="M234.5,34.2c0,0-2.3-3.1-6-3s-4.2,3.9-4.2,3.9s3.1-2.6,5.1-2.6C232.1,32.7,234.5,34.2,234.5,34.2z"/>
			<ellipse fill="#010101" cx="230.9" cy="34.2" rx="2.1" ry="2.3"/>
		</g>
		<path fill="#C18E67" d="M237.9,34.9c0,0-0.2,3.8-1.1,5.1c0,0-3.7-1.1-3.4,1.5c0.3,2.6,4.5,1.4,4.5,1.4s-5.2,2.8-5.7-1.5
			c-0.5-4.3,2.8-2.8,4.2-2C236.4,39.3,237.7,36.8,237.9,34.9z"/>
		<g>
			<path fill="#E07474" d="M257.8,54.9c-2,4.4-6,9.7-13.6,8.7c-0.6-0.1-1.2-0.2-1.8-0.3C244.3,52,253.8,53.7,257.8,54.9z"/>
			<path fill="#601715" d="M228.9,47.4c11.3-0.3,30.7,2.1,30.7,2.1s-0.4,2.5-1.7,5.4c-4-1.2-13.5-2.9-15.4,8.4
				C231.3,60.6,228.9,47.4,228.9,47.4z"/>
		</g>
		<ellipse opacity="0.35" fill="#FAC5C5" cx="258.7" cy="44.3" rx="4.3" ry="2.2"/>
		<ellipse opacity="0.35" fill="#FAC5C5" cx="225.8" cy="43.7" rx="3" ry="1.6"/>
		<path fill="#633F17" d="M248.4,25.2c0,0,7.7-2.8,11.5,3.6C259.9,28.8,255.3,24.2,248.4,25.2z"/>
		<path fill="#5F2917" d="M271.7,37.8c0,0-16.8-8.7-24.3-18.6c0,0,6.9,12.3-12.6-2.6c0,0,9.7,12-3.7,7.9
			c-13.4-4.1-20.9-6.1-20.9-10.4s9.9-15.8,24.4-10.7c0,0,3.4-8.9,27.5,2.3c0,0,7,1,13.5,13.2C282,31.1,275.4,38,271.7,37.8z"/>
		<g>
			<path fill="#FEE2CB" d="M267.4,37.8c0,0,0.6-3.6,5.2-3.6c4.6,0,5.5,5.9,5.5,8.1c0,2.1-1.7,6.7-6,6.3
				C267.9,48.1,267.6,43.9,267.4,37.8z"/>
			<ellipse fill="#254563" cx="271.9" cy="46.2" rx="1.3" ry="1.4"/>
			<path fill="#C18E67" d="M270.6,41.4c0,0,2-5.9,5.3-1.2C275.9,40.1,273,37.7,270.6,41.4z"/>
			<path fill="#C18E67" d="M273.2,43.7c0,0,2.1-3.5-1.3-4.3C271.9,39.3,276.4,38.5,273.2,43.7z"/>
		</g>
		<path fill="#633F17" d="M234.5,26c0,0-7-3.1-10.1,2.8C224.3,28.8,227,25,234.5,26z"/>
	</g>
	<g>
		<path fill="#4285AA" d="M255.1,76.1c0,0-3.9,5.1-7.9,5c-4-0.1-4.6-3.7-4.6-3.7l0,0c-0.6,0.8-0.9,1.8-1,2.7
			c-0.2,4.8-0.7,19.7,0.1,25c0.9,6.4,3.8-3.5,3.8-3.5s11.4-22.6,11.6-24.1C256.1,77.4,255.1,76.1,255.1,76.1z"/>
	</g>
	<g>
		<path fill="#FEE2CB" d="M273.4,135.6c0,0,2.2,5.1,6.4,3.5c4.6-1.8,11.7-7.3,5.7-10.7c0,0,1-3.7-5.6-5.4c0,0-0.6-4.6-2.6-6.8
			c-2-2.3-3.8-1.4-3,2.8c0.7,4.3,0.8,8.5-1.4,10c0,0-3.7-1.4-5-2.8c-1.4-1.4-4.5,0-2.2,2.8c2.3,2.8,5.1,4,5.1,4
			S270.6,134.1,273.4,135.6z"/>
	</g>
	<g>
		<path fill="#CBDBE8" d="M255.1,76.1c0,0,9.1,4.7,14,10.9c0,0-15.8,4.6-18.6,4.5c0,0,6.1,6.6,7.4,9.5c0,0-13,3.4-15.8,8
			C242.2,109,252.1,83.3,255.1,76.1z"/>
		<path fill="#FFFFFF" d="M255.1,76.1c0,0,7.6,4.3,12.6,10.4c0,0-14.3,5.1-17.1,4.9c0,0,5.2,5.9,6.5,8.7c0,0-12,4.2-14.9,8.8
			C242.2,109,252.1,83.3,255.1,76.1z"/>
	</g>
	<g>
		<path fill="#CBDBE8" d="M243.1,75.5c0,0,0.2,12-0.1,19c-0.3,7-0.9,14.5-0.9,14.5s-5.6-14.7-8.4-18.9l6.3-2c0,0-6.1-4.3-8.2-6.9
			C231.9,81.1,240.1,77.4,243.1,75.5z"/>
		<path fill="#FFFFFF" d="M243.1,75.5c0,0,0.2,12-0.1,19c-0.3,7-0.9,14.5-0.9,14.5s-4.7-14.5-7.5-18.6l5.5-2.3c0,0-5.3-4.1-7.4-6.7
			C232.8,81.3,240.1,77.4,243.1,75.5z"/>
	</g>
	<path fill="#254563" d="M242.6,110.4c0,0-6.1,45.5-6.4,64.1C236.2,174.5,238,120.9,242.6,110.4z"/>
	<path fill="#20808C" d="M243.4,74.6c0,0-4.2,3.1-4.8,8.7c-0.6,5.6-0.5,12.1-1.8,14.8c-1.3,2.7-2.5,2.1-1.2-0.6
		c1.3-2.6,0.7-10.2,1.2-14.2c0.5-4,3.4-9.7,6.7-10.2L243.4,74.6z"/>
	<path fill="#20808C" d="M254.1,73.8c0,0,5.9,2,7.4,8.2c1.5,6.2-1.8,15.8-2.7,18.9c0,0-1.3,0.9-0.8-0.7c0.5-1.6,3.9-13.8,2.1-18.2
		c-1.8-4.4-4.6-6.3-5.9-6.7C254.2,75.3,253.4,74.5,254.1,73.8z"/>
	<path fill="#20808C" d="M260.1,114.9c0,0,6.4-11.7-2.1-13.8c-8.5-2.1-7.3,11.9-7.3,11.9l2.5,0.4c0,0,0.9,1.5,0,1.5
		c-0.9-0.1-3.8,0.4-4.1-0.6c-0.3-1-1.6-16.7,9-14.5c9.9,2.1,4.6,14.8,3.2,16.6c0,0-3-0.4-3.5-1C257.4,114.9,258.3,114.4,260.1,114.9
		z"/>
	<g>
		<path fill="#555555" d="M238.4,98.6c-0.6-2-3.2-4.6-5.7-3.8c-2.4,0.9-2.6,3.7-0.9,7.8C233.6,106.7,240.4,105.1,238.4,98.6z"/>
		<path fill="#C0BFBF" d="M237.6,99c-0.6-2-3.2-4.6-5.7-3.8c-2.4,0.9-2.6,3.7-0.9,7.8C232.8,107.2,239.6,105.5,237.6,99z"/>
		<path fill="#5E5F5F" d="M235.9,99.6c-0.3-1-1.7-2.5-3-2c-1.3,0.5-1.4,2-0.5,4.2C233.4,103.9,237,103,235.9,99.6z"/>
	</g>
</g>
<g>
	<path fill="#F7F8F9" d="M25.7,71c0,1.9-0.6,3.4-1.7,4.6c-1.1,1.2-2.6,1.8-4.5,1.8c-1.8,0-3.2-0.6-4.3-1.8c-1.1-1.2-1.7-2.8-1.7-4.6
		v-2.7c0-1.8,0.6-3.4,1.7-4.6c1.1-1.2,2.5-1.8,4.3-1.8c1.8,0,3.3,0.6,4.5,1.8c1.1,1.2,1.7,2.8,1.7,4.6V71z M23.6,68.3
		c0-1.4-0.4-2.5-1.1-3.4c-0.8-0.9-1.8-1.3-3-1.3c-1.2,0-2.1,0.4-2.9,1.3c-0.7,0.9-1.1,2-1.1,3.4V71c0,1.4,0.4,2.5,1.1,3.4
		c0.7,0.9,1.7,1.3,2.9,1.3c1.3,0,2.3-0.4,3-1.3c0.7-0.9,1.1-2,1.1-3.4V68.3z"/>
	<path fill="#F7F8F9" d="M30.2,65.9l0.1,1.7c0.4-0.6,0.8-1.1,1.4-1.4c0.6-0.3,1.2-0.5,1.9-0.5c1.2,0,2.2,0.4,2.8,1.1
		c0.7,0.7,1,1.8,1,3.3v7.1h-2.1v-7.1c0-1-0.2-1.7-0.6-2.1c-0.4-0.4-1-0.6-1.8-0.6c-0.6,0-1.2,0.1-1.6,0.4c-0.4,0.3-0.8,0.6-1,1.1
		v8.4h-2.1V65.9H30.2z"/>
	<path fill="#F7F8F9" d="M40,71.8c0-1.8,0.4-3.3,1.2-4.4s1.9-1.7,3.3-1.7c0.7,0,1.2,0.1,1.8,0.4c0.5,0.2,0.9,0.6,1.3,1.1V61h2.1
		v16.2H48l-0.3-1.4c-0.4,0.5-0.8,1-1.4,1.2c-0.5,0.3-1.2,0.4-1.9,0.4c-1.4,0-2.5-0.5-3.2-1.5c-0.8-1-1.2-2.3-1.2-3.9V71.8z M42.1,72
		c0,1.1,0.2,2,0.7,2.7c0.5,0.7,1.2,1,2.2,1c0.6,0,1.1-0.1,1.5-0.4c0.4-0.3,0.8-0.7,1-1.2v-5.3c-0.3-0.5-0.6-0.8-1-1.1
		c-0.4-0.3-0.9-0.4-1.5-0.4c-1,0-1.7,0.4-2.2,1.2c-0.5,0.8-0.7,1.9-0.7,3.2V72z"/>
	<path fill="#F7F8F9" d="M57.3,77.4c-1.6,0-2.9-0.5-3.8-1.6c-0.9-1-1.4-2.4-1.4-4.1v-0.5c0-1.6,0.5-3,1.4-4c0.9-1.1,2.1-1.6,3.4-1.6
		c1.5,0,2.6,0.5,3.4,1.4c0.8,0.9,1.1,2.2,1.1,3.7V72h-7.2l0,0.1c0,1.1,0.3,2,0.7,2.8c0.5,0.7,1.3,1.1,2.3,1.1c0.7,0,1.3-0.1,1.8-0.3
		c0.5-0.2,1-0.5,1.3-0.8l0.8,1.3c-0.4,0.4-0.9,0.7-1.6,1C59,77.3,58.2,77.4,57.3,77.4z M57,67.3c-0.7,0-1.3,0.3-1.8,0.8
		c-0.5,0.6-0.8,1.3-0.9,2.1l0,0.1h5.1v-0.2c0-0.8-0.2-1.5-0.6-2C58.4,67.6,57.8,67.3,57,67.3z"/>
	<path fill="#F7F8F9" d="M72.8,73.9l0.2,0.8h0.1l0.2-0.8l2.6-7.9h2.1l-4.1,11.3h-1.6l-4.2-11.3h2.1L72.8,73.9z"/>
	<path fill="#F7F8F9" d="M79.2,71.5c0-1.7,0.5-3,1.4-4.1c0.9-1.1,2.1-1.6,3.7-1.6c1.6,0,2.8,0.5,3.7,1.6c0.9,1.1,1.4,2.4,1.4,4.1
		v0.2c0,1.7-0.5,3.1-1.4,4.1c-0.9,1.1-2.1,1.6-3.7,1.6c-1.6,0-2.8-0.5-3.7-1.6c-0.9-1.1-1.4-2.4-1.4-4.1V71.5z M81.2,71.7
		c0,1.2,0.3,2.2,0.8,3c0.5,0.8,1.3,1.2,2.2,1.2c1,0,1.7-0.4,2.2-1.2c0.5-0.8,0.8-1.8,0.8-3v-0.2c0-1.2-0.3-2.2-0.8-2.9
		c-0.5-0.8-1.3-1.2-2.2-1.2c-1,0-1.7,0.4-2.2,1.2c-0.5,0.8-0.8,1.8-0.8,2.9V71.7z"/>
	<path fill="#F7F8F9" d="M96.2,75.8c0.6,0,1.2-0.2,1.7-0.6c0.5-0.4,0.7-0.9,0.7-1.5h1.9l0,0.1c0,1-0.4,1.8-1.2,2.6
		c-0.9,0.8-1.9,1.1-3,1.1c-1.6,0-2.8-0.5-3.7-1.6c-0.9-1.1-1.3-2.4-1.3-4v-0.4c0-1.6,0.4-2.9,1.3-4c0.9-1.1,2.1-1.6,3.7-1.6
		c1.3,0,2.3,0.4,3.1,1.2c0.8,0.8,1.2,1.7,1.2,2.9l0,0.1h-1.9c0-0.7-0.2-1.3-0.7-1.8c-0.4-0.5-1-0.7-1.7-0.7c-1,0-1.7,0.4-2.2,1.2
		c-0.5,0.8-0.7,1.7-0.7,2.8v0.4c0,1.1,0.2,2.1,0.7,2.9C94.5,75.4,95.2,75.8,96.2,75.8z"/>
	<path fill="#F7F8F9" d="M107.6,77.4c-1.6,0-2.9-0.5-3.8-1.6c-0.9-1-1.4-2.4-1.4-4.1v-0.5c0-1.6,0.5-3,1.4-4
		c0.9-1.1,2.1-1.6,3.4-1.6c1.5,0,2.6,0.5,3.4,1.4c0.8,0.9,1.1,2.2,1.1,3.7V72h-7.2l0,0.1c0,1.1,0.3,2,0.7,2.8
		c0.5,0.7,1.3,1.1,2.3,1.1c0.7,0,1.3-0.1,1.8-0.3c0.5-0.2,1-0.5,1.3-0.8l0.8,1.3c-0.4,0.4-0.9,0.7-1.6,1
		C109.3,77.3,108.5,77.4,107.6,77.4z M110.2,63.6v0.3h-1.7l-1.5-1.5l-1.5,1.5h-1.7v-0.3l2.6-2.5h1.2L110.2,63.6z M107.3,67.3
		c-0.7,0-1.3,0.3-1.8,0.8c-0.5,0.6-0.8,1.3-0.9,2.1l0,0.1h5.1v-0.2c0-0.8-0.2-1.5-0.6-2C108.7,67.6,108.1,67.3,107.3,67.3z"/>
	<path fill="#F7F8F9" d="M118.9,71.8c0-1.8,0.4-3.3,1.2-4.4s1.9-1.7,3.3-1.7c0.7,0,1.2,0.1,1.8,0.4c0.5,0.2,0.9,0.6,1.3,1.1V61h2.1
		v16.2h-1.6l-0.3-1.4c-0.4,0.5-0.8,1-1.4,1.2c-0.5,0.3-1.2,0.4-1.9,0.4c-1.4,0-2.5-0.5-3.2-1.5c-0.8-1-1.2-2.3-1.2-3.9V71.8z
		 M121,72c0,1.1,0.2,2,0.7,2.7c0.5,0.7,1.2,1,2.2,1c0.6,0,1.1-0.1,1.5-0.4c0.4-0.3,0.8-0.7,1-1.2v-5.3c-0.3-0.5-0.6-0.8-1-1.1
		c-0.4-0.3-0.9-0.4-1.5-0.4c-1,0-1.7,0.4-2.2,1.2c-0.5,0.8-0.7,1.9-0.7,3.2V72z"/>
	<path fill="#F7F8F9" d="M136.2,77.4c-1.6,0-2.9-0.5-3.8-1.6c-0.9-1-1.4-2.4-1.4-4.1v-0.5c0-1.6,0.5-3,1.4-4
		c0.9-1.1,2.1-1.6,3.4-1.6c1.5,0,2.6,0.5,3.4,1.4c0.8,0.9,1.1,2.2,1.1,3.7V72h-7.2l0,0.1c0,1.1,0.3,2,0.7,2.8
		c0.5,0.7,1.3,1.1,2.3,1.1c0.7,0,1.3-0.1,1.8-0.3c0.5-0.2,1-0.5,1.3-0.8l0.8,1.3c-0.4,0.4-0.9,0.7-1.6,1
		C137.9,77.3,137.1,77.4,136.2,77.4z M135.8,67.3c-0.7,0-1.3,0.3-1.8,0.8c-0.5,0.6-0.8,1.3-0.9,2.1l0,0.1h5.1v-0.2
		c0-0.8-0.2-1.5-0.6-2C137.3,67.6,136.7,67.3,135.8,67.3z"/>
	<path fill="#F7F8F9" d="M149.2,74.2c0-0.5-0.2-0.8-0.5-1.1c-0.3-0.3-1-0.5-2-0.7c-1.3-0.3-2.3-0.7-3.1-1.2
		c-0.7-0.5-1.1-1.2-1.1-2.1c0-0.9,0.4-1.7,1.2-2.4c0.8-0.7,1.8-1,3-1c1.3,0,2.3,0.3,3.1,1s1.2,1.5,1.1,2.4l0,0.1h-2
		c0-0.5-0.2-0.9-0.6-1.3c-0.4-0.4-1-0.6-1.6-0.6c-0.7,0-1.3,0.2-1.6,0.5c-0.4,0.3-0.5,0.7-0.5,1.2c0,0.4,0.2,0.8,0.5,1
		c0.3,0.2,0.9,0.5,1.9,0.7c1.4,0.3,2.4,0.7,3.1,1.2c0.7,0.5,1.1,1.2,1.1,2.1c0,1-0.4,1.8-1.2,2.4c-0.8,0.6-1.9,0.9-3.2,0.9
		c-1.4,0-2.6-0.4-3.4-1.1c-0.8-0.7-1.2-1.6-1.2-2.6l0-0.1h2c0,0.7,0.3,1.3,0.8,1.6c0.5,0.3,1.1,0.5,1.8,0.5c0.7,0,1.3-0.2,1.7-0.5
		C149,75,149.2,74.7,149.2,74.2z"/>
	<path fill="#F7F8F9" d="M158.5,77.4c-1.6,0-2.9-0.5-3.8-1.6c-0.9-1-1.4-2.4-1.4-4.1v-0.5c0-1.6,0.5-3,1.4-4
		c0.9-1.1,2.1-1.6,3.4-1.6c1.5,0,2.6,0.5,3.4,1.4c0.8,0.9,1.1,2.2,1.1,3.7V72h-7.2l0,0.1c0,1.1,0.3,2,0.7,2.8
		c0.5,0.7,1.3,1.1,2.3,1.1c0.7,0,1.3-0.1,1.8-0.3c0.5-0.2,1-0.5,1.3-0.8l0.8,1.3c-0.4,0.4-0.9,0.7-1.6,1
		C160.2,77.3,159.4,77.4,158.5,77.4z M158.1,67.3c-0.7,0-1.3,0.3-1.8,0.8c-0.5,0.6-0.8,1.3-0.9,2.1l0,0.1h5.1v-0.2
		c0-0.8-0.2-1.5-0.6-2C159.6,67.6,159,67.3,158.1,67.3z"/>
	<path fill="#F7F8F9" d="M167.3,65.9v12.2c0,1.2-0.3,2.1-0.9,2.7s-1.4,0.9-2.5,0.9c-0.2,0-0.4,0-0.6,0c-0.2,0-0.4-0.1-0.6-0.1
		l0.1-1.6c0.1,0,0.2,0.1,0.4,0.1c0.2,0,0.3,0,0.4,0c0.5,0,0.8-0.2,1.1-0.5c0.3-0.3,0.4-0.8,0.4-1.5V65.9H167.3z M167.3,63h-2.1V61
		h2.1V63z"/>
	<path fill="#F7F8F9" d="M177.4,77.2c-0.1-0.3-0.1-0.6-0.2-0.9c0-0.3-0.1-0.5-0.1-0.8c-0.4,0.5-0.9,1-1.5,1.4
		c-0.6,0.4-1.3,0.5-2,0.5c-1.2,0-2.1-0.3-2.7-0.9c-0.6-0.6-0.9-1.4-0.9-2.5c0-1.1,0.4-1.9,1.3-2.5c0.9-0.6,2.1-0.9,3.5-0.9h2.2v-1.1
		c0-0.7-0.2-1.2-0.6-1.6c-0.4-0.4-1-0.6-1.7-0.6c-0.7,0-1.2,0.2-1.6,0.5c-0.4,0.3-0.6,0.7-0.6,1.2l-1.9,0l0-0.1
		c0-0.8,0.3-1.6,1.2-2.2c0.8-0.7,1.9-1,3.2-1c1.3,0,2.3,0.3,3.1,1s1.2,1.6,1.2,2.8v5.4c0,0.4,0,0.8,0.1,1.2c0,0.4,0.1,0.7,0.2,1.1
		H177.4z M174,75.7c0.7,0,1.4-0.2,2-0.6c0.6-0.4,1-0.8,1.2-1.3V72h-2.3c-0.8,0-1.5,0.2-2,0.6c-0.5,0.4-0.7,0.9-0.7,1.5
		c0,0.5,0.2,0.9,0.5,1.2C172.9,75.6,173.4,75.7,174,75.7z"/>
	<path fill="#F7F8F9" d="M20.4,99.8c0-0.5-0.2-0.8-0.5-1.1c-0.3-0.3-1-0.5-2-0.7c-1.3-0.3-2.3-0.7-3.1-1.2c-0.7-0.5-1.1-1.2-1.1-2.1
		c0-0.9,0.4-1.7,1.2-2.4c0.8-0.7,1.8-1,3-1c1.3,0,2.3,0.3,3.1,1s1.2,1.5,1.1,2.4l0,0.1h-2c0-0.5-0.2-0.9-0.6-1.3
		c-0.4-0.4-1-0.6-1.6-0.6c-0.7,0-1.3,0.2-1.6,0.5c-0.4,0.3-0.5,0.7-0.5,1.2c0,0.4,0.2,0.8,0.5,1c0.3,0.2,0.9,0.5,1.9,0.7
		c1.4,0.3,2.4,0.7,3.1,1.2c0.7,0.5,1.1,1.2,1.1,2.1c0,1-0.4,1.8-1.2,2.4c-0.8,0.6-1.9,0.9-3.2,0.9c-1.4,0-2.6-0.4-3.4-1.1
		c-0.8-0.7-1.2-1.6-1.2-2.6l0-0.1h2c0,0.7,0.3,1.3,0.8,1.6c0.5,0.3,1.1,0.5,1.8,0.5c0.7,0,1.3-0.2,1.7-0.5
		C20.2,100.6,20.4,100.2,20.4,99.8z"/>
	<path fill="#F7F8F9" d="M29.7,103c-1.6,0-2.9-0.5-3.8-1.6c-0.9-1-1.4-2.4-1.4-4.1v-0.5c0-1.6,0.5-3,1.4-4s2.1-1.6,3.4-1.6
		c1.5,0,2.6,0.5,3.4,1.4c0.8,0.9,1.1,2.2,1.1,3.7v1.1h-7.2l0,0.1c0,1.1,0.3,2,0.7,2.8c0.5,0.7,1.3,1.1,2.3,1.1
		c0.7,0,1.3-0.1,1.8-0.3c0.5-0.2,1-0.5,1.3-0.8l0.8,1.3c-0.4,0.4-0.9,0.7-1.6,1C31.4,102.9,30.6,103,29.7,103z M29.3,92.9
		c-0.7,0-1.3,0.3-1.8,0.8c-0.5,0.6-0.8,1.3-0.9,2.1l0,0.1h5.1v-0.2c0-0.8-0.2-1.5-0.6-2C30.8,93.2,30.2,92.9,29.3,92.9z"/>
	<path fill="#F7F8F9" d="M41.5,93.3l-1.1-0.1c-0.5,0-1,0.1-1.4,0.4c-0.4,0.3-0.7,0.6-0.9,1.1v8h-2.1V91.5H38l0.2,1.6
		c0.3-0.6,0.7-1,1.2-1.4c0.5-0.3,1-0.5,1.6-0.5c0.2,0,0.3,0,0.4,0c0.1,0,0.3,0.1,0.3,0.1L41.5,93.3z"/>
	<path fill="#F7F8F9" d="M55.8,102.8c-0.1-0.3-0.1-0.6-0.2-0.9c0-0.3-0.1-0.5-0.1-0.8c-0.4,0.5-0.9,1-1.5,1.4
		c-0.6,0.4-1.3,0.5-2,0.5c-1.2,0-2.1-0.3-2.7-0.9c-0.6-0.6-0.9-1.4-0.9-2.5c0-1.1,0.4-1.9,1.3-2.5c0.9-0.6,2.1-0.9,3.5-0.9h2.2v-1.1
		c0-0.7-0.2-1.2-0.6-1.6c-0.4-0.4-1-0.6-1.7-0.6c-0.7,0-1.2,0.2-1.6,0.5s-0.6,0.7-0.6,1.2l-1.9,0l0-0.1c0-0.8,0.3-1.6,1.2-2.2
		c0.8-0.7,1.9-1,3.2-1c1.3,0,2.3,0.3,3.1,1c0.8,0.6,1.2,1.6,1.2,2.8v5.4c0,0.4,0,0.8,0.1,1.2c0,0.4,0.1,0.7,0.2,1.1H55.8z
		 M52.4,101.3c0.7,0,1.4-0.2,2-0.6c0.6-0.4,1-0.8,1.2-1.3v-1.8h-2.3c-0.8,0-1.5,0.2-2,0.6c-0.5,0.4-0.7,0.9-0.7,1.5
		c0,0.5,0.2,0.9,0.5,1.2C51.4,101.1,51.8,101.3,52.4,101.3z"/>
	<path fill="#F7F8F9" d="M63.5,88.8v2.7h2.1V93h-2.1v6.8c0,0.5,0.1,0.9,0.3,1.1c0.2,0.2,0.5,0.3,0.9,0.3c0.1,0,0.3,0,0.4,0
		c0.1,0,0.3-0.1,0.4-0.1l0.3,1.4c-0.2,0.1-0.4,0.2-0.7,0.3c-0.3,0.1-0.6,0.1-0.9,0.1c-0.8,0-1.5-0.3-2-0.8c-0.5-0.5-0.7-1.3-0.7-2.4
		V93h-1.8v-1.5h1.8v-2.7H63.5z"/>
	<path fill="#F7F8F9" d="M72.5,103c-1.6,0-2.9-0.5-3.8-1.6s-1.4-2.4-1.4-4.1v-0.5c0-1.6,0.5-3,1.4-4s2.1-1.6,3.4-1.6
		c1.5,0,2.6,0.5,3.4,1.4c0.8,0.9,1.1,2.2,1.1,3.7v1.1h-7.2l0,0.1c0,1.1,0.3,2,0.7,2.8c0.5,0.7,1.3,1.1,2.3,1.1
		c0.7,0,1.3-0.1,1.8-0.3c0.5-0.2,1-0.5,1.3-0.8l0.8,1.3c-0.4,0.4-0.9,0.7-1.6,1C74.2,102.9,73.4,103,72.5,103z M72.2,92.9
		c-0.7,0-1.3,0.3-1.8,0.8c-0.5,0.6-0.8,1.3-0.9,2.1l0,0.1h5.1v-0.2c0-0.8-0.2-1.5-0.6-2C73.6,93.2,73,92.9,72.2,92.9z"/>
	<path fill="#F7F8F9" d="M80.8,91.5l0.1,1.7c0.4-0.6,0.8-1.1,1.4-1.4c0.6-0.3,1.2-0.5,1.9-0.5c1.2,0,2.2,0.4,2.8,1.1
		c0.7,0.7,1,1.8,1,3.3v7.1h-2.1v-7.1c0-1-0.2-1.7-0.6-2.1c-0.4-0.4-1-0.6-1.8-0.6c-0.6,0-1.2,0.1-1.6,0.4c-0.4,0.3-0.8,0.6-1,1.1
		v8.4H79V91.5H80.8z"/>
	<path fill="#F7F8F9" d="M90.6,97.4c0-1.8,0.4-3.3,1.2-4.4c0.8-1.1,1.9-1.7,3.3-1.7c0.7,0,1.2,0.1,1.8,0.4c0.5,0.2,0.9,0.6,1.3,1.1
		v-6.2h2.1v16.2h-1.6l-0.3-1.4c-0.4,0.5-0.8,1-1.4,1.2c-0.5,0.3-1.2,0.4-1.9,0.4c-1.4,0-2.5-0.5-3.2-1.5c-0.8-1-1.2-2.3-1.2-3.9
		V97.4z M92.7,97.6c0,1.1,0.2,2,0.7,2.7c0.5,0.7,1.2,1,2.2,1c0.6,0,1.1-0.1,1.5-0.4c0.4-0.3,0.8-0.7,1-1.2v-5.3
		c-0.3-0.5-0.6-0.8-1-1.1c-0.4-0.3-0.9-0.4-1.5-0.4c-1,0-1.7,0.4-2.2,1.2c-0.5,0.8-0.7,1.9-0.7,3.2V97.6z"/>
	<path fill="#F7F8F9" d="M105.4,88.6h-2.1v-2.1h2.1V88.6z M105.4,102.8h-2.1V91.5h2.1V102.8z"/>
	<path fill="#F7F8F9" d="M108.1,97.4c0-1.8,0.4-3.3,1.2-4.4c0.8-1.1,1.9-1.7,3.3-1.7c0.7,0,1.2,0.1,1.8,0.4c0.5,0.2,0.9,0.6,1.3,1.1
		v-6.2h2.1v16.2h-1.6l-0.3-1.4c-0.4,0.5-0.8,1-1.4,1.2c-0.5,0.3-1.2,0.4-1.9,0.4c-1.4,0-2.5-0.5-3.2-1.5c-0.8-1-1.2-2.3-1.2-3.9
		V97.4z M110.2,97.6c0,1.1,0.2,2,0.7,2.7c0.5,0.7,1.2,1,2.2,1c0.6,0,1.1-0.1,1.5-0.4c0.4-0.3,0.8-0.7,1-1.2v-5.3
		c-0.3-0.5-0.6-0.8-1-1.1c-0.4-0.3-0.9-0.4-1.5-0.4c-1,0-1.7,0.4-2.2,1.2c-0.5,0.8-0.7,1.9-0.7,3.2V97.6z"/>
	<path fill="#F7F8F9" d="M120.2,97.1c0-1.7,0.5-3,1.4-4.1c0.9-1.1,2.1-1.6,3.7-1.6c1.6,0,2.8,0.5,3.7,1.6c0.9,1.1,1.4,2.4,1.4,4.1
		v0.2c0,1.7-0.5,3.1-1.4,4.1c-0.9,1.1-2.1,1.6-3.7,1.6c-1.6,0-2.8-0.5-3.7-1.6s-1.4-2.4-1.4-4.1V97.1z M122.3,97.3
		c0,1.2,0.3,2.2,0.8,3c0.5,0.8,1.3,1.2,2.2,1.2c1,0,1.7-0.4,2.2-1.2c0.5-0.8,0.8-1.8,0.8-3v-0.2c0-1.2-0.3-2.2-0.8-2.9
		c-0.5-0.8-1.3-1.2-2.2-1.2c-1,0-1.7,0.4-2.2,1.2c-0.5,0.8-0.8,1.8-0.8,2.9V97.3z"/>
	<path fill="#F7F8F9" d="M135,98.5c0-1,0.1-1.7,0.3-2.1c0.2-0.4,0.6-0.9,1.3-1.5c0.7-0.8,1.2-1.4,1.5-1.9c0.3-0.4,0.4-1,0.4-1.6
		c0-0.7-0.2-1.3-0.6-1.7c-0.4-0.4-1-0.6-1.7-0.6c-0.6,0-1.2,0.2-1.6,0.5c-0.4,0.3-0.7,0.8-0.7,1.5h-2l0-0.1c0-1.1,0.4-2,1.2-2.7
		s1.8-1,3.1-1c1.4,0,2.4,0.3,3.2,1c0.8,0.7,1.1,1.7,1.1,2.9c0,0.9-0.2,1.7-0.7,2.5c-0.5,0.7-1.1,1.5-1.9,2.3c-0.4,0.4-0.6,0.7-0.7,1
		c-0.1,0.3-0.1,0.8-0.1,1.4H135z M137.2,102.8H135v-2.2h2.1V102.8z"/>
</g>
</svg>
